<svg width="114" height="113" viewBox="0 0 114 113" fill="none" xmlns="http://www.w3.org/2000/svg">
<path d="M54.1979 112.177C84.1306 112.177 108.396 87.9118 108.396 57.9792C108.396 28.0465 84.1306 3.78125 54.1979 3.78125C24.2652 3.78125 0 28.0465 0 57.9792C0 87.9118 24.2652 112.177 54.1979 112.177Z" fill="#E4E4E7"/>
<path d="M54.1979 104.615C79.9539 104.615 100.833 83.7352 100.833 57.9792C100.833 32.2231 79.9539 11.3438 54.1979 11.3438C28.4419 11.3438 7.5625 32.2231 7.5625 57.9792C7.5625 83.7352 28.4419 104.615 54.1979 104.615Z" fill="white"/>
<path d="M113.422 57.9791C113.422 49.5128 111.568 41.1492 107.99 33.4761C104.412 25.803 99.1968 19.0066 92.7113 13.5645C86.2257 8.12249 78.6269 4.16684 70.4491 1.97559C62.2712 -0.215655 53.7127 -0.589328 45.375 0.880835L48.0014 15.776C54.1641 14.6894 60.49 14.9656 66.5345 16.5852C72.5789 18.2048 78.1954 21.1286 82.9891 25.151C87.7828 29.1734 91.6374 34.1968 94.282 39.8682C96.9267 45.5396 98.2971 51.7214 98.2971 57.9791H113.422Z" fill="#F3B64C"/>
<path d="M34.6402 67.2185C33.7282 67.2185 32.8242 67.0505 31.9282 66.7145C31.0322 66.3625 30.2642 65.8905 29.6242 65.2985L30.6562 62.9945C31.2482 63.5385 31.8882 63.9465 32.5762 64.2185C33.2642 64.4905 33.9602 64.6265 34.6642 64.6265C36.0882 64.6265 37.1762 64.1385 37.9282 63.1625C38.6962 62.1865 39.0802 60.7305 39.0802 58.7945V56.9945H39.3682C39.2562 57.7945 38.9842 58.4905 38.5522 59.0825C38.1202 59.6745 37.5762 60.1305 36.9202 60.4505C36.2802 60.7545 35.5602 60.9065 34.7602 60.9065C33.7842 60.9065 32.9042 60.6745 32.1202 60.2105C31.3522 59.7465 30.7442 59.1065 30.2962 58.2905C29.8642 57.4585 29.6482 56.5225 29.6482 55.4825C29.6482 54.3785 29.8882 53.4025 30.3682 52.5545C30.8642 51.7065 31.5362 51.0425 32.3842 50.5625C33.2322 50.0665 34.2082 49.8185 35.3122 49.8185C37.4562 49.8185 39.1042 50.5545 40.2562 52.0265C41.4242 53.4825 42.0082 55.5465 42.0082 58.2185C42.0082 60.1225 41.7122 61.7465 41.1202 63.0905C40.5442 64.4345 39.7042 65.4585 38.6002 66.1625C37.4962 66.8665 36.1762 67.2185 34.6402 67.2185ZM35.5042 58.4585C36.0962 58.4585 36.6162 58.3305 37.0642 58.0745C37.5122 57.8185 37.8642 57.4585 38.1202 56.9945C38.3762 56.5145 38.5042 55.9705 38.5042 55.3625C38.5042 54.7385 38.3762 54.1945 38.1202 53.7305C37.8642 53.2665 37.5122 52.9065 37.0642 52.6505C36.6162 52.3785 36.0962 52.2425 35.5042 52.2425C34.9122 52.2425 34.3922 52.3785 33.9442 52.6505C33.4962 52.9065 33.1442 53.2665 32.8882 53.7305C32.6482 54.1945 32.5282 54.7385 32.5282 55.3625C32.5282 55.9705 32.6482 56.5145 32.8882 56.9945C33.1442 57.4585 33.4962 57.8185 33.9442 58.0745C34.3922 58.3305 34.9122 58.4585 35.5042 58.4585ZM49.5828 67.2185C47.5988 67.2185 46.0708 66.4665 44.9988 64.9625C43.9268 63.4425 43.3908 61.2825 43.3908 58.4825C43.3908 55.6505 43.9268 53.4985 44.9988 52.0265C46.0708 50.5545 47.5988 49.8185 49.5828 49.8185C51.5828 49.8185 53.1108 50.5545 54.1668 52.0265C55.2388 53.4985 55.7748 55.6425 55.7748 58.4585C55.7748 61.2745 55.2388 63.4425 54.1668 64.9625C53.1108 66.4665 51.5828 67.2185 49.5828 67.2185ZM49.5828 64.6745C50.6708 64.6745 51.4788 64.1785 52.0068 63.1865C52.5348 62.1785 52.7988 60.6025 52.7988 58.4585C52.7988 56.3145 52.5348 54.7625 52.0068 53.8025C51.4788 52.8265 50.6708 52.3385 49.5828 52.3385C48.5108 52.3385 47.7028 52.8265 47.1588 53.8025C46.6308 54.7625 46.3668 56.3145 46.3668 58.4585C46.3668 60.6025 46.6308 62.1785 47.1588 63.1865C47.7028 64.1785 48.5108 64.6745 49.5828 64.6745ZM63.7574 66.9785H61.1894L71.1734 50.0585H73.7414L63.7574 66.9785ZM61.3814 60.1625C60.0214 60.1625 58.9574 59.6985 58.1894 58.7705C57.4214 57.8425 57.0374 56.5785 57.0374 54.9785C57.0374 53.3625 57.4214 52.0985 58.1894 51.1865C58.9734 50.2745 60.0374 49.8185 61.3814 49.8185C62.7414 49.8185 63.8054 50.2825 64.5734 51.2105C65.3414 52.1385 65.7254 53.3945 65.7254 54.9785C65.7254 56.5785 65.3414 57.8425 64.5734 58.7705C63.8054 59.6985 62.7414 60.1625 61.3814 60.1625ZM61.3814 58.2425C61.9734 58.2425 62.4294 57.9785 62.7494 57.4505C63.0854 56.9225 63.2534 56.0985 63.2534 54.9785C63.2534 53.8425 63.0854 53.0265 62.7494 52.5305C62.4294 52.0185 61.9734 51.7625 61.3814 51.7625C60.7894 51.7625 60.3254 52.0105 59.9894 52.5065C59.6694 53.0025 59.5094 53.8265 59.5094 54.9785C59.5094 56.1305 59.6694 56.9625 59.9894 57.4745C60.3254 57.9865 60.7894 58.2425 61.3814 58.2425ZM73.5494 67.2185C72.1894 67.2185 71.1254 66.7545 70.3574 65.8265C69.5894 64.8825 69.2054 63.6105 69.2054 62.0105C69.2054 60.3945 69.5894 59.1385 70.3574 58.2425C71.1414 57.3305 72.2054 56.8745 73.5494 56.8745C74.9094 56.8745 75.9734 57.3385 76.7414 58.2665C77.5094 59.1785 77.8934 60.4265 77.8934 62.0105C77.8934 63.6105 77.5094 64.8825 76.7414 65.8265C75.9734 66.7545 74.9094 67.2185 73.5494 67.2185ZM73.5494 65.2745C74.1414 65.2745 74.5974 65.0185 74.9174 64.5065C75.2534 63.9785 75.4214 63.1465 75.4214 62.0105C75.4214 60.8745 75.2534 60.0585 74.9174 59.5625C74.5974 59.0505 74.1414 58.7945 73.5494 58.7945C72.9574 58.7945 72.4934 59.0505 72.1574 59.5625C71.8374 60.0585 71.6774 60.8745 71.6774 62.0105C71.6774 63.1625 71.8374 63.9945 72.1574 64.5065C72.4934 65.0185 72.9574 65.2745 73.5494 65.2745Z" fill="#0A0D12"/>
</svg>
