<svg width="1440" height="405" viewBox="0 0 1440 405" fill="none" xmlns="http://www.w3.org/2000/svg">
<path d="M1567.09 3.47239L1553.48 0.529297M1567.09 3.47239H1526.75M1567.09 3.47239L1581.15 6.51268M1567.09 3.47239H1595.65M1513.79 0.529297H1553.48L1558.43 0.530444L1563.33 0.536817L1568.13 0.554734L1572.78 0.590022L1577.23 0.647287L1581.43 0.733485L1585.32 0.853222L1588.94 1.00592L1592.05 1.21706L1594.88 1.46174L1595.65 1.54745V3.47239M1513.79 0.529297H1474.11M1513.79 0.529297L1526.75 3.47239M1474.11 0.529297H1434.42M1474.11 0.529297L1486.42 3.47239M1434.42 0.529297H1394.73M1434.42 0.529297L1446.09 3.47239M1394.73 0.529297H1355.05M1394.73 0.529297L1405.75 3.47239M1355.05 0.529297H1315.36M1355.05 0.529297L1365.42 3.47239M1315.36 0.529297H1275.67M1315.36 0.529297L1325.08 3.47239M1275.67 0.529297H1235.99M1275.67 0.529297L1284.75 3.47239M1235.99 0.529297H1196.3M1235.99 0.529297L1244.41 3.47239M1196.3 0.529297H1156.61M1196.3 0.529297L1204.08 3.47239M1156.61 0.529297H1116.93M1156.61 0.529297L1163.74 3.47239M1116.93 0.529297H1077.24M1116.93 0.529297L1123.41 3.47239M1077.24 0.529297H1037.55M1077.24 0.529297L1078.68 1.25639L1080.86 2.35717L1083.07 3.47239M1037.55 0.529297H997.868M1037.55 0.529297L1038.83 1.25639L1042.74 3.47239M997.868 0.529297H958.181M997.868 0.529297L1002.4 3.47239M958.181 0.529297H918.494M958.181 0.529297L959.624 1.62196L961.086 2.72736L961.577 3.0993L962.07 3.47239M918.494 0.529297H878.808M918.494 0.529297L919.697 1.62196L920.102 1.98869L920.508 2.35717L921.736 3.47239M878.808 0.529297H839.122M878.808 0.529297L881.401 3.47239M839.122 0.529297L839.362 0.89197L839.602 1.25639L840.819 3.0993L841.066 3.47239M839.122 0.529297H799.436M799.436 0.529297H759.749M799.436 0.529297L800.732 3.47239M759.749 0.529297H720.063M759.749 0.529297L759.99 1.62196L760.397 3.47239M720.063 0.529297H680.376M720.063 0.529297V3.47239M680.376 0.529297H640.689M680.376 0.529297L680.136 1.62196L679.728 3.47239M640.689 0.529297H601.003M640.689 0.529297L639.393 3.47239M601.003 0.529297L600.763 0.89197L600.523 1.25639L599.306 3.0993L599.059 3.47239M601.003 0.529297H561.317M561.317 0.529297H521.63M561.317 0.529297L559.053 3.0993L558.724 3.47239M521.63 0.529297H481.944M521.63 0.529297L520.428 1.62196L520.023 1.98869L519.209 2.72736L518.801 3.0993L518.389 3.47239M481.944 0.529297H442.258M481.944 0.529297L480.501 1.62196L479.039 2.72736L478.548 3.0993L478.055 3.47239M442.258 0.529297H402.571M442.258 0.529297L437.721 3.47239M402.571 0.529297H362.884M402.571 0.529297L401.291 1.25639L397.386 3.47239M362.884 0.529297H323.198M362.884 0.529297L357.052 3.47239M323.198 0.529297H283.512M323.198 0.529297L316.717 3.47239M283.512 0.529297H243.825M283.512 0.529297L276.382 3.47239M243.825 0.529297H204.139M243.825 0.529297L236.048 3.47239M204.139 0.529297H164.453M204.139 0.529297L195.713 3.47239M164.453 0.529297H124.766M164.453 0.529297L155.378 3.47239M124.766 0.529297H85.0794M124.766 0.529297L115.044 3.47239M85.0794 0.529297H45.3933M85.0794 0.529297L74.7091 3.47239M45.3933 0.529297H5.7071M45.3933 0.529297L34.3745 3.47239M5.7071 0.529297H-33.98M5.7071 0.529297L-5.96015 3.47239M-33.98 0.529297H-73.6662M-33.98 0.529297L-46.2939 3.47239M-155.528 3.47239V1.54746L-154.751 1.46174L-151.924 1.21706L-148.818 1.00592L-145.199 0.853222L-141.3 0.733485L-137.102 0.647287L-132.655 0.590022L-128.006 0.554734L-123.206 0.536817L-118.305 0.530444L-113.352 0.529297H-73.6662M-73.6662 0.529297L-86.6286 3.47239M-113.352 0.529297L-126.963 3.47239M-46.2939 3.47239H-5.96015M-46.2939 3.47239H-86.6286M-46.2939 3.47239L-59.0182 6.51268M-5.96015 3.47239L-18.0141 6.51268M-5.96015 3.47239H34.3745M115.044 3.47239H155.378M115.044 3.47239H74.7091M115.044 3.47239L112.564 4.22321L104.999 6.51268M155.378 3.47239L146.003 6.51268M155.378 3.47239H195.713M276.382 3.47239H316.717M276.382 3.47239H236.048M276.382 3.47239L274.564 4.22321L273.648 4.60036L269.016 6.51268M316.717 3.47239L315.892 3.84664L315.063 4.22321L310.021 6.51268M316.717 3.47239H357.052M437.721 3.47239L437.143 3.84664L433.033 6.51268M437.721 3.47239H478.055M437.721 3.47239H397.386M478.055 3.47239L477.063 4.22321L476.563 4.60036L476.063 4.97982L474.037 6.51268M478.055 3.47239H518.389M599.059 3.47239H639.393M599.059 3.47239H558.724M599.059 3.47239L597.05 6.51268M639.393 3.47239L639.228 3.84664L639.063 4.22321L638.896 4.60036L638.393 5.74278L638.054 6.51268M639.393 3.47239H679.728M760.397 3.47239H800.732M760.397 3.47239H720.063M760.397 3.47239L761.067 6.51268M800.732 3.47239L800.897 3.84664L801.062 4.22321L801.229 4.60036L802.071 6.51268M800.732 3.47239H841.066M921.736 3.47239H962.07M921.736 3.47239H881.401M921.736 3.47239L922.562 4.22321L924.237 5.74278L924.659 6.12687L925.084 6.51268M962.07 3.47239L963.062 4.22321L963.562 4.60036L964.062 4.97982L966.088 6.51268M962.07 3.47239H1002.4M1083.07 3.47239H1123.41M1083.07 3.47239H1042.74M1083.07 3.47239L1084.56 4.22321L1085.31 4.60036L1089.1 6.51268M1123.41 3.47239L1124.23 3.84664L1125.06 4.22321L1130.1 6.51268M1123.41 3.47239H1163.74M1244.41 3.47239H1284.75M1244.41 3.47239H1204.08M1244.41 3.47239L1246.56 4.22321L1247.64 4.60036L1253.12 6.51268M1284.75 3.47239L1294.12 6.51268M1284.75 3.47239H1325.08M1405.75 3.47239H1446.09M1405.75 3.47239H1365.42M1405.75 3.47239L1417.13 6.51268M1446.09 3.47239L1458.14 6.51268M1446.09 3.47239H1486.42M-155.67 30.9946H-155.528M-115.073 30.9946L-99.673 27.1104M-115.073 30.9946L-131.062 35.0275M-115.073 30.9946H-68.6762M-115.073 30.9946H-155.528M-99.673 27.1104H-145.214M-99.673 27.1104L-84.8309 23.3667M-99.673 27.1104H-54.1323M-145.214 27.1104L-129.547 23.3667M-145.214 27.1104H-155.528M-145.214 27.1104L-155.528 29.5746M-99.8573 16.2716H-56.7034M-99.8573 16.2716L-85.7767 12.9068M-99.8573 16.2716H-143.01M-99.8573 16.2716L-114.439 19.7561M-56.7034 16.2716L-43.3634 12.9068M-56.7034 16.2716L-70.5168 19.7561M-56.7034 16.2716H-13.5495M-85.7767 12.9068H-43.3634M-85.7767 12.9068L-72.1713 9.65592M-85.7767 12.9068H-128.189M-43.3634 12.9068H-0.951033M-43.3634 12.9068L-30.4749 9.65592M-155.973 92.3035H-155.528M-118.536 92.3035L-98.678 85.8637M-118.536 92.3035L-139.38 99.0637M-118.536 92.3035H-58.6352M-118.536 92.3035H-155.528M-98.678 85.8637L-79.7387 79.7218M-98.678 85.8637H-40.1967M-98.678 85.8637H-155.528M-136.867 79.7218H-79.7387M-136.867 79.7218L-117.493 73.8576M-136.867 79.7218H-155.528M-136.867 79.7218L-155.528 85.3701M-98.9762 68.2525H-44.374M-98.9762 68.2525L-81.2601 62.8904M-98.9762 68.2525H-153.578M-98.9762 68.2525L-117.493 73.8576M-44.374 68.2525L-27.8381 62.8904M-44.374 68.2525L-61.6569 73.8576M-44.374 68.2525H10.2292M-81.2601 62.8904H-27.8381M-81.2601 62.8904H-134.681M-81.2601 62.8904L-64.2937 57.755M-27.8381 62.8904L-12.0036 57.755M-27.8381 62.8904H25.583M-32.4294 48.1101H17.7364M-32.4294 48.1101L-17.4486 43.5757M-32.4294 48.1101H-82.5954M-32.4294 48.1101L-48.0314 52.8325M17.7364 48.1101L31.7185 43.5757M17.7364 48.1101L3.17518 52.8325M17.7364 48.1101H67.9032M-17.4486 43.5757H31.7185M-17.4486 43.5757H-66.6158M-17.4486 43.5757L-3.05247 39.2183M31.7185 43.5757L45.1552 39.2183M31.7185 43.5757H80.8866M24.1164 30.9946H70.5127M24.1164 30.9946L36.9493 27.1104M24.1164 30.9946H-22.2799M24.1164 30.9946L10.7919 35.0275M70.5127 30.9946L82.49 27.1104M70.5127 30.9946L58.0766 35.0275M70.5127 30.9946H116.909M36.9493 27.1104H82.49M36.9493 27.1104H-8.59149M36.9493 27.1104L49.3179 23.3667M82.49 27.1104L94.0342 23.3667M82.49 27.1104H128.031M72.7573 16.2716H115.911M72.7573 16.2716L83.8736 12.9068M72.7573 16.2716H29.6043M72.7573 16.2716L61.246 19.7561M115.911 16.2716L126.286 12.9068M115.911 16.2716L105.167 19.7561M115.911 16.2716H159.065M83.8736 12.9068H126.286M83.8736 12.9068L94.6152 9.65592M83.8736 12.9068H41.4613M126.286 12.9068H168.699M126.286 12.9068L136.312 9.65592M-124.84 203.951L-96.8921 191.261M-124.84 203.951L-154.769 217.539M-124.84 203.951H-40.3499M-124.84 203.951H-155.528M-96.8921 191.261L-70.7329 179.385M-96.8921 191.261H-15.1967M-96.8921 191.261H-155.528M-97.4594 157.775H-23.1391M-97.4594 157.775L-73.5768 147.918M-97.4594 157.775L-122.824 168.245M-97.4594 157.775H-155.528M-23.1391 157.775L-1.42806 147.918M-23.1391 157.775L-46.1981 168.245M-23.1391 157.775H51.1813M-73.5768 147.918H-1.42806M-73.5768 147.918H-145.725M-73.5768 147.918L-51.0495 138.62M-1.42806 147.918L19.0516 138.62M-1.42806 147.918H70.7215M-9.6267 121.522H56.7093M-9.6267 121.522L9.46027 113.644M-9.6267 121.522H-75.9619M-9.6267 121.522L-29.7662 129.836M56.7093 121.522L74.0607 113.644M56.7093 121.522L38.3995 129.836M56.7093 121.522H123.044M9.46027 113.644H74.0607M9.46027 113.644H-55.1401M9.46027 113.644L27.5732 106.168M74.0607 113.644L90.5273 106.168M74.0607 113.644H138.66M61.1639 92.3035H121.064M61.1639 92.3035L76.7668 85.8637M61.1639 92.3035H1.26438M61.1639 92.3035L44.7867 99.0637M121.064 92.3035L135.248 85.8637M121.064 92.3035L106.175 99.0637M121.064 92.3035H180.964M76.7668 85.8637H135.248M76.7668 85.8637H18.2855M76.7668 85.8637L91.6472 79.7218M135.248 85.8637L148.776 79.7218M135.248 85.8637H193.729M119.434 68.2525H174.037M119.434 68.2525L132.426 62.8904M119.434 68.2525H64.8314M119.434 68.2525L105.855 73.8576M174.037 68.2525L185.848 62.8904M174.037 68.2525L161.692 73.8576M174.037 68.2525H228.639M132.426 62.8904H185.848M132.426 62.8904H79.005M132.426 62.8904L144.868 57.755M185.848 62.8904L197.159 57.755M185.848 62.8904H239.269M168.235 48.1101H218.401M168.235 48.1101L179.221 43.5757M168.235 48.1101H118.069M168.235 48.1101L156.794 52.8325M218.401 48.1101L219.672 47.5334L228.388 43.5757M218.401 48.1101L208.001 52.8325M218.401 48.1101H268.568M179.221 43.5757H228.388M179.221 43.5757H130.054M179.221 43.5757L189.778 39.2183M228.388 43.5757L237.986 39.2183M228.388 43.5757H277.556M209.702 30.9946H256.099M209.702 30.9946L219.113 27.1104M209.702 30.9946H163.305M209.702 30.9946L199.931 35.0275M256.099 30.9946L264.654 27.1104M256.099 30.9946L252.807 32.4893L247.215 35.0275M256.099 30.9946H302.495M219.113 27.1104H264.654M219.113 27.1104H173.572M219.113 27.1104L228.183 23.3667M264.654 27.1104L272.899 23.3667M264.654 27.1104H310.195M245.372 16.2716H288.526M245.372 16.2716L253.524 12.9068M245.372 16.2716H202.219M245.372 16.2716L236.931 19.7561M288.526 16.2716L294.109 13.7374L295.024 13.3209L295.937 12.9068M288.526 16.2716L280.852 19.7561M288.526 16.2716H331.68M253.524 12.9068H295.937M253.524 12.9068L261.401 9.65592M253.524 12.9068H211.112M295.937 12.9068H338.35M295.937 12.9068L303.097 9.65592M-94.228 348.498H22.0998M-94.228 348.498L-57.5991 324.741M-94.228 348.498L-134.478 374.605M-94.228 348.498L-155.528 348.499M22.0998 348.498L53.4961 324.741M22.0998 348.498L-12.4003 374.605M22.0998 348.498H138.427M-57.5991 324.741H53.4961M-57.5991 324.741L-24.1232 303.028M-57.5991 324.741H-155.528M53.4961 324.741L82.189 303.028M53.4961 324.741H164.59M34.867 264.767H132.753M34.867 264.767L60.9888 247.824M34.867 264.767H-63.0177M34.867 264.767L6.58908 283.108M132.753 264.767L155.142 247.824M132.753 264.767L108.514 283.108M132.753 264.767H230.637M60.9888 247.824H155.142M60.9888 247.824H-33.1646M60.9888 247.824L85.1925 232.125M155.142 247.824L175.888 232.125M155.142 247.824H249.296M128.631 203.951H213.121M128.631 203.951L148.195 191.261M128.631 203.951H44.1401M128.631 203.951L107.681 217.539M213.121 203.951L229.89 191.261M213.121 203.951L195.164 217.539M213.121 203.951H297.611M148.195 191.261H229.89M148.195 191.261H66.4986M148.195 191.261L166.506 179.385M229.89 191.261L245.585 179.385M229.89 191.261H311.586M199.821 157.775H274.141M199.821 157.775L215.02 147.918M199.821 157.775H125.502M199.821 157.775L183.68 168.245M274.141 157.775L287.169 147.918M274.141 157.775L260.306 168.245M274.141 157.775H348.462M215.02 147.918H287.169M215.02 147.918H142.87M215.02 147.918L229.355 138.62M287.169 147.918L299.456 138.62M287.169 147.918H359.317M255.715 121.522H322.051M255.715 121.522L267.861 113.644M255.715 121.522H189.38M255.715 121.522L242.898 129.836M322.051 121.522L332.461 113.644M322.051 121.522L311.065 129.836M322.051 121.522H388.386M267.861 113.644H332.461M267.861 113.644H203.26M267.861 113.644L279.388 106.168M332.461 113.644L342.341 106.168M332.461 113.644H397.062M300.764 92.3035H360.663M300.764 92.3035L310.693 85.8637M300.764 92.3035H240.863M300.764 92.3035L290.342 99.0637M360.663 92.3035L369.174 85.8637M360.663 92.3035L351.73 99.0637M360.663 92.3035H420.563M310.693 85.8637H369.174M310.693 85.8637H252.211M310.693 85.8637L320.162 79.7218M369.174 85.8637L377.291 79.7218M369.174 85.8637H427.655M337.844 68.2525H392.447M337.844 68.2525L346.112 62.8904M337.844 68.2525H283.242M337.844 68.2525L329.203 73.8576M392.447 68.2525L399.533 62.8904M392.447 68.2525L385.041 73.8576M392.447 68.2525H447.05M346.112 62.8904H399.533M346.112 62.8904H292.69M346.112 62.8904L354.03 57.755M399.533 62.8904L406.32 57.755M399.533 62.8904H452.955M368.9 48.1101H419.066M368.9 48.1101L375.891 43.5757M368.9 48.1101H318.734M368.9 48.1101L361.618 52.8325M419.066 48.1101L418.299 48.6897L412.825 52.8325M419.066 48.1101L425.058 43.5757M419.066 48.1101H469.232M375.891 43.5757H425.058M375.891 43.5757H326.723M375.891 43.5757L382.609 39.2183M425.058 43.5757L430.817 39.2183M425.058 43.5757H474.226M395.288 30.9946H441.684M395.288 30.9946L401.276 27.1104M395.288 30.9946H348.891M395.288 30.9946L389.07 35.0275M441.684 30.9946L446.817 27.1104M441.684 30.9946L439.709 32.4893L438.377 33.4975L436.355 35.0275M441.684 30.9946H488.08M401.276 27.1104H446.817M401.276 27.1104H355.736M401.276 27.1104L407.048 23.3667M446.817 27.1104L448.694 25.6903L449.931 24.7544L451.765 23.3667M446.817 27.1104H492.358M417.987 16.2716H461.14M417.987 16.2716L421.895 13.7374L423.174 12.9068M417.987 16.2716H374.833M417.987 16.2716L413.297 19.3136L412.615 19.7561M461.14 16.2716L464.49 13.7374L465.039 13.3209L465.588 12.9068M461.14 16.2716L458.858 17.9982L456.536 19.7561M461.14 16.2716H504.294M423.174 12.9068H465.588M423.174 12.9068L428.187 9.65592M423.174 12.9068H380.762M465.588 12.9068H508M465.588 12.9068L469.883 9.65592M371.081 348.498H487.408M371.081 348.498L386.779 324.741M371.081 348.498H254.754M371.081 348.498L353.831 374.605M487.408 348.498L497.874 324.741M487.408 348.498L475.909 374.605M487.408 348.498H603.736M386.779 324.741H497.874M386.779 324.741H275.685M386.779 324.741L401.126 303.028M497.874 324.741L507.438 303.028M497.874 324.741H608.968M426.408 264.767H524.292M426.408 264.767L437.602 247.824M426.408 264.767H328.522M426.408 264.767L414.288 283.108M524.292 264.767L531.756 247.824M524.292 264.767L516.213 283.108M524.292 264.767H622.178M437.602 247.824H531.756M437.602 247.824H343.449M437.602 247.824L447.975 232.125M531.756 247.824L538.671 232.125M531.756 247.824H625.909M466.592 203.951H551.082M466.592 203.951L474.976 191.261M466.592 203.951H382.102M466.592 203.951L457.613 217.539M551.082 203.951L556.672 191.261M551.082 203.951L545.097 217.539M551.082 203.951H635.573M474.976 191.261H556.672M474.976 191.261H393.281M474.976 191.261L482.824 179.385M556.672 191.261L561.904 179.385M556.672 191.261H638.367M497.103 157.775H571.422M497.103 157.775L503.616 147.918M497.103 157.775H422.782M497.103 157.775L490.184 168.245M571.422 157.775L575.764 147.918M571.422 157.775L566.81 168.245M571.422 157.775H645.742M503.616 147.918H575.764M503.616 147.918H431.467M503.616 147.918L509.759 138.62M575.764 147.918L579.86 138.62M575.764 147.918H647.914M521.056 121.522H587.392M521.056 121.522L526.261 113.644M521.056 121.522H454.721M521.056 121.522L515.564 129.836M587.392 121.522L590.862 113.644M587.392 121.522L583.73 129.836M587.392 121.522H653.728M526.261 113.644H590.862M526.261 113.644H461.662M526.261 113.644L531.202 106.168M590.862 113.644L594.155 106.168M590.862 113.644H655.462M540.363 92.3035H600.263M540.363 92.3035L544.618 85.8637M540.363 92.3035H480.464M540.363 92.3035L535.897 99.0637M600.263 92.3035L603.1 85.8637M600.263 92.3035L597.285 99.0637M600.263 92.3035H660.163M544.618 85.8637H603.1M544.618 85.8637H486.137M544.618 85.8637L546.163 83.5268L548.677 79.7218M603.1 85.8637L605.805 79.7218M603.1 85.8637H661.581M556.255 68.2525H610.857M556.255 68.2525L559.798 62.8904M556.255 68.2525H501.652M556.255 68.2525L553.493 72.4329L552.551 73.8576M610.857 68.2525L611.756 66.2141L613.22 62.8904M610.857 68.2525L608.388 73.8576M610.857 68.2525H665.46M559.798 62.8904L560.23 62.2362L563.191 57.755M559.798 62.8904H613.22M559.798 62.8904H506.376M613.22 62.8904L614.08 60.9387L614.362 60.2949L614.645 59.6552L615.481 57.755M613.22 62.8904H666.642M569.564 48.1101H619.73M569.564 48.1101L571.077 45.82L571.451 45.2549L571.822 44.6921L572.193 44.1327L572.56 43.5757M569.564 48.1101H519.398M569.564 48.1101L566.444 52.8325M619.73 48.1101L621.236 44.6921L621.483 44.1327L621.727 43.5757M619.73 48.1101L617.65 52.8325M619.73 48.1101H669.897M572.56 43.5757H621.727M572.56 43.5757H523.393M572.56 43.5757L574.373 40.8321L574.73 40.2913L575.44 39.2183M621.727 43.5757L622.936 40.8321L623.175 40.2913L623.411 39.7533L623.647 39.2183M621.727 43.5757H670.895M580.874 30.9946H627.27M580.874 30.9946L583.44 27.1104M580.874 30.9946H534.477M580.874 30.9946L580.216 31.9884L579.219 33.4975L578.209 35.0275M627.27 30.9946L627.051 31.4903L625.719 34.515L625.493 35.0275M627.27 30.9946L628.981 27.1104M627.27 30.9946H673.666M583.44 27.1104H628.981M583.44 27.1104H537.9M583.44 27.1104L585.914 23.3667M628.981 27.1104L629.607 25.6903L629.813 25.2212L630.019 24.7544L630.63 23.3667M628.981 27.1104H674.522M590.602 16.2716H633.755M590.602 16.2716L592.277 13.7374L592.825 12.9068M590.602 16.2716H547.448M590.602 16.2716L589.747 17.5638L589.461 17.9982L589.172 18.4349L588.299 19.7561M633.755 16.2716L633.944 15.8447L634.317 14.9961L634.688 14.155L635.237 12.9068M633.755 16.2716L632.994 17.9982L632.803 18.4349L632.415 19.3136L632.221 19.7561M633.755 16.2716H676.909M592.825 12.9068H635.237M592.825 12.9068L594.708 10.0562L594.973 9.65592M592.825 12.9068H550.412M635.237 12.9068L635.419 12.4943L635.6 12.0836L635.781 11.6747L635.959 11.2675L636.493 10.0562L636.67 9.65592M635.237 12.9068H677.65M836.389 348.498H952.717M836.389 348.498L831.157 324.741M836.389 348.498H720.063M836.389 348.498L842.14 374.605M952.717 348.498L942.252 324.741M952.717 348.498L964.217 374.605M952.717 348.498H1069.04M831.157 324.741H942.252M831.157 324.741H720.063M831.157 324.741L826.375 303.028M942.252 324.741L932.687 303.028M942.252 324.741H1053.35M817.947 264.767H915.833M817.947 264.767L814.216 247.824M817.947 264.767H720.063M817.947 264.767L821.988 283.108M915.833 264.767L908.369 247.824M915.833 264.767L923.912 283.108M915.833 264.767H1013.72M814.216 247.824H908.369M814.216 247.824H720.063M814.216 247.824L810.758 232.125M908.369 247.824L901.454 232.125M908.369 247.824H1002.52M804.553 203.951H889.043M804.553 203.951L801.758 191.261M804.553 203.951H720.063M804.553 203.951L807.546 217.539M889.043 203.951L883.453 191.261M889.043 203.951L895.028 217.539M889.043 203.951H973.533M801.758 191.261H883.453M801.758 191.261H720.063M801.758 191.261L799.142 179.385M883.453 191.261L878.222 179.385M883.453 191.261H965.149M794.383 157.775H868.703M794.383 157.775L792.211 147.918M794.383 157.775H720.063M794.383 157.775L796.689 168.245M868.703 157.775L864.361 147.918M868.703 157.775L873.315 168.245M868.703 157.775H943.023M792.211 147.918H864.361M792.211 147.918H720.063M792.211 147.918L790.164 138.62M864.361 147.918L860.265 138.62M864.361 147.918H936.51M786.398 121.522H852.733M786.398 121.522L784.663 113.644M786.398 121.522H720.063M786.398 121.522L788.229 129.836M852.733 121.522L849.263 113.644M852.733 121.522L856.395 129.836M852.733 121.522H919.069M784.663 113.644H849.263M784.663 113.644H720.063M784.663 113.644L783.016 106.168M849.263 113.644L845.97 106.168M849.263 113.644H913.864M779.962 92.3035H839.863M779.962 92.3035L778.544 85.8637M779.962 92.3035H720.063M779.962 92.3035L781.452 99.0637M839.863 92.3035L837.025 85.8637M839.863 92.3035L842.841 99.0637M839.863 92.3035H899.762M778.544 85.8637H837.025M778.544 85.8637H720.063M778.544 85.8637L777.191 79.7218M837.025 85.8637L834.32 79.7218M837.025 85.8637H895.507M774.665 68.2525H829.268M774.665 68.2525L773.484 62.8904M774.665 68.2525H720.063M774.665 68.2525L775.9 73.8576M829.268 68.2525L827.195 63.5481L826.906 62.8904M829.268 68.2525L831.737 73.8576M829.268 68.2525H883.87M773.484 62.8904L773.341 62.2362L772.353 57.755M773.484 62.8904H826.906M773.484 62.8904H720.063M826.906 62.8904L826.046 60.9387L825.763 60.2949L825.48 59.6552L824.644 57.755M826.906 62.8904H880.327M770.229 48.1101H820.395M770.229 48.1101L769.23 43.5757M770.229 48.1101H720.063M770.229 48.1101L770.613 49.8581L770.744 50.447L770.873 51.0387L771.136 52.2315L771.269 52.8325M820.395 48.1101L818.889 44.6921L818.397 43.5757M820.395 48.1101L822.475 52.8325M820.395 48.1101H870.561M769.23 43.5757H818.397M769.23 43.5757H720.063M769.23 43.5757L768.27 39.2183M818.397 43.5757L817.189 40.8321L816.95 40.2913L816.714 39.7533L816.478 39.2183M818.397 43.5757H867.565M766.459 30.9946H812.855M766.459 30.9946L765.603 27.1104M766.459 30.9946H720.063M766.459 30.9946L767.347 35.0275M812.855 30.9946L813.074 31.4903L814.407 34.515L814.632 35.0275M812.855 30.9946L811.144 27.1104M812.855 30.9946H859.252M765.603 27.1104H811.144M765.603 27.1104H720.063M765.603 27.1104L764.779 23.3667M811.144 27.1104L810.518 25.6903L810.312 25.2212L810.106 24.7544L809.495 23.3667M811.144 27.1104H856.685M763.217 16.2716H806.37M763.217 16.2716L762.475 12.9068M763.217 16.2716H720.063M763.217 16.2716L763.984 19.7561M806.37 16.2716L806.182 15.8447L805.808 14.9961L805.622 14.5744L805.253 13.7374L805.071 13.3209L804.887 12.9068M806.37 16.2716L807.131 17.9982L807.323 18.4349L807.71 19.3136L807.904 19.7561M806.37 16.2716H849.523M762.475 12.9068L762.385 12.4943L762.293 12.0836L762.204 11.6747L761.759 9.65592M762.475 12.9068H804.887M762.475 12.9068H720.063M804.887 12.9068H847.301M804.887 12.9068L804.525 12.0836L804.345 11.6747L804.166 11.2675L803.632 10.0562L803.455 9.65592M1301.7 348.498H1418.03M1301.7 348.498L1275.53 324.741M1301.7 348.498H1185.37M1301.7 348.498L1330.45 374.605M1418.03 348.498L1386.63 324.741M1418.03 348.498L1452.53 374.605M1418.03 348.498H1534.35M1275.53 324.741H1386.63M1275.53 324.741H1164.44M1275.53 324.741L1251.62 303.028M1386.63 324.741L1357.94 303.028M1386.63 324.741H1497.72M1209.49 264.767H1307.37M1209.49 264.767L1190.83 247.824M1209.49 264.767H1111.6M1209.49 264.767L1229.69 283.108M1307.37 264.767L1284.98 247.824M1307.37 264.767L1331.61 283.108M1307.37 264.767H1405.26M1190.83 247.824H1284.98M1190.83 247.824H1096.68M1190.83 247.824L1173.54 232.125M1284.98 247.824L1264.24 232.125M1284.98 247.824H1379.14M1142.51 203.951H1227M1142.51 203.951L1128.54 191.261M1142.51 203.951H1058.02M1142.51 203.951L1157.48 217.539M1227 203.951L1210.24 191.261M1227 203.951L1244.96 217.539M1227 203.951H1311.49M1128.54 191.261H1210.24M1128.54 191.261H1046.84M1128.54 191.261L1115.46 179.385M1210.24 191.261L1194.54 179.385M1210.24 191.261H1291.93M1091.66 157.775H1165.98M1091.66 157.775L1080.81 147.918M1091.66 157.775H1017.34M1091.66 157.775L1103.19 168.245M1165.98 157.775L1152.96 147.918M1165.98 157.775L1179.82 168.245M1165.98 157.775H1240.3M1080.81 147.918H1152.96M1080.81 147.918H1008.66M1080.81 147.918L1070.57 138.62M1152.96 147.918L1140.67 138.62M1152.96 147.918H1225.11M1051.74 121.522H1118.07M1051.74 121.522L1043.06 113.644M1051.74 121.522H985.404M1051.74 121.522L1060.89 129.836M1118.07 121.522L1107.66 113.644M1118.07 121.522L1129.06 129.836M1118.07 121.522H1184.41M1043.06 113.644H1107.66M1043.06 113.644H978.463M1043.06 113.644L1034.83 106.168M1107.66 113.644L1097.78 106.168M1107.66 113.644H1172.26M1019.56 92.3035H1079.46M1019.56 92.3035L1012.47 85.8637M1019.56 92.3035H959.662M1019.56 92.3035L1027.01 99.0637M1079.46 92.3035L1070.95 85.8637M1079.46 92.3035L1088.4 99.0637M1079.46 92.3035H1139.36M1012.47 85.8637H1070.95M1012.47 85.8637H953.989M1012.47 85.8637L1005.71 79.7218M1070.95 85.8637L1062.83 79.7218M1070.95 85.8637H1129.43M993.076 68.2525L993.832 68.9397L994.593 69.6304L999.248 73.8576M993.076 68.2525H1047.68M993.076 68.2525L987.17 62.8904M993.076 68.2525H938.473M1047.68 68.2525L1040.59 62.8904M1047.68 68.2525L1055.08 73.8576M1047.68 68.2525H1102.28M987.17 62.8904H1040.59M987.17 62.8904H933.749M987.17 62.8904L981.515 57.755M1040.59 62.8904L1033.81 57.755M1040.59 62.8904H1094.01M970.893 48.1101H1021.06M970.893 48.1101L965.899 43.5757M970.893 48.1101H920.727M970.893 48.1101L976.094 52.8325M1021.06 48.1101L1017.29 45.2549L1015.07 43.5757M1021.06 48.1101L1027.3 52.8325M1021.06 48.1101H1071.23M965.899 43.5757H1015.07M965.899 43.5757H916.732M965.899 43.5757L961.691 39.7533L961.101 39.2183M1015.07 43.5757L1009.31 39.2183M1015.07 43.5757H1064.23M952.045 30.9946H998.441M952.045 30.9946L950.96 30.0095L947.767 27.1104M952.045 30.9946H905.649M952.045 30.9946L953.139 31.9884L955.36 34.0048L956.486 35.0275M998.441 30.9946L993.308 27.1104M998.441 30.9946L1000.42 32.4893L1001.75 33.4975L1003.77 35.0275M998.441 30.9946H1044.84M947.767 27.1104H993.308M947.767 27.1104H902.226M947.767 27.1104L944.661 24.2893L943.644 23.3667M993.308 27.1104L991.431 25.6903L990.194 24.7544L988.36 23.3667M993.308 27.1104H1038.85M935.831 16.2716H978.985M935.831 16.2716L933.5 14.155L932.125 12.9068M935.831 16.2716H892.677M935.831 16.2716L939.668 19.7561M978.985 16.2716L975.635 13.7374L975.086 13.3209L974.538 12.9068M978.985 16.2716L981.267 17.9982L983.589 19.7561M978.985 16.2716H1022.14M932.125 12.9068H974.538M932.125 12.9068L930.32 11.2675L929.429 10.4582L928.986 10.0562L928.545 9.65592M932.125 12.9068H889.713M974.538 12.9068H1016.95M974.538 12.9068L970.242 9.65592M1567.44 247.824H1473.29M1567.44 247.824L1536.33 232.125M1567.44 247.824H1595.65M1567.44 247.824L1595.65 262.055M1480.48 203.951H1564.97M1480.48 203.951L1455.32 191.261M1480.48 203.951H1395.99M1480.48 203.951L1507.41 217.539M1564.97 203.951L1537.02 191.261M1564.97 203.951L1594.89 217.539M1564.97 203.951H1595.65M1455.32 191.261H1537.02M1455.32 191.261H1373.63M1455.32 191.261L1431.78 179.385M1537.02 191.261L1510.86 179.385M1537.02 191.261H1595.65M1388.94 157.775H1463.26M1388.94 157.775L1369.4 147.918M1388.94 157.775H1314.62M1388.94 157.775L1409.7 168.245M1463.26 157.775L1441.55 147.918M1463.26 157.775L1486.32 168.245M1463.26 157.775H1537.58M1369.4 147.918H1441.55M1369.4 147.918H1297.25M1369.4 147.918L1350.97 138.62M1441.55 147.918L1421.07 138.62M1441.55 147.918H1513.7M1317.08 121.522H1383.42M1317.08 121.522L1301.47 113.644M1317.08 121.522H1250.75M1317.08 121.522L1333.56 129.836M1383.42 121.522L1366.06 113.644M1383.42 121.522L1401.73 129.836M1383.42 121.522H1449.75M1301.47 113.644H1366.06M1301.47 113.644H1236.86M1301.47 113.644L1286.64 106.168M1366.06 113.644L1349.6 106.168M1366.06 113.644H1430.66M1259.16 92.3035H1319.06M1259.16 92.3035L1246.4 85.8637M1259.16 92.3035H1199.26M1259.16 92.3035L1272.56 99.0637M1319.06 92.3035L1304.88 85.8637M1319.06 92.3035L1333.95 99.0637M1319.06 92.3035H1378.96M1246.4 85.8637H1304.88M1246.4 85.8637H1187.91M1246.4 85.8637L1234.22 79.7218M1304.88 85.8637L1291.35 79.7218M1304.88 85.8637H1363.36M1211.49 68.2525H1266.09M1211.49 68.2525L1200.86 62.8904M1211.49 68.2525H1156.88M1211.49 68.2525L1222.6 73.8576M1266.09 68.2525L1254.28 62.8904M1266.09 68.2525L1278.43 73.8576M1266.09 68.2525H1320.69M1200.86 62.8904H1254.28M1200.86 62.8904H1147.43M1200.86 62.8904L1190.68 57.755M1254.28 62.8904L1242.97 57.755M1254.28 62.8904H1307.7M1171.56 48.1101H1221.72M1171.56 48.1101L1162.57 43.5757M1171.56 48.1101H1121.39M1171.56 48.1101L1180.92 52.8325M1221.72 48.1101L1211.74 43.5757M1221.72 48.1101L1232.13 52.8325M1221.72 48.1101H1271.89M1162.57 43.5757H1211.74M1162.57 43.5757H1113.4M1162.57 43.5757L1153.93 39.2183M1211.74 43.5757L1202.14 39.2183M1211.74 43.5757H1260.9M1137.63 30.9946H1184.03M1137.63 30.9946L1129.93 27.1104M1137.63 30.9946H1091.23M1137.63 30.9946L1139.6 31.9884L1140.59 32.4893L1145.63 35.0275M1184.03 30.9946L1175.47 27.1104M1184.03 30.9946L1192.91 35.0275M1184.03 30.9946H1230.42M1129.93 27.1104H1175.47M1129.93 27.1104H1084.39M1129.93 27.1104L1122.51 23.3667M1175.47 27.1104L1167.23 23.3667M1175.47 27.1104H1221.01M1108.45 16.2716H1151.6M1108.45 16.2716L1101.78 12.9068M1108.45 16.2716H1065.29M1108.45 16.2716L1115.35 19.7561M1151.6 16.2716L1146.02 13.7374L1145.1 13.3209L1144.19 12.9068M1151.6 16.2716L1159.27 19.7561M1151.6 16.2716H1194.75M1101.78 12.9068H1144.19M1101.78 12.9068L1096.13 10.0562L1095.33 9.65592M1101.78 12.9068H1059.36M1144.19 12.9068H1186.6M1144.19 12.9068L1137.03 9.65592M1582.42 121.522L1559.87 113.644M1582.42 121.522H1516.09M1582.42 121.522L1595.65 126.143M1582.42 121.522H1595.65M1559.87 113.644H1495.27M1559.87 113.644L1538.46 106.168M1559.87 113.644H1595.65M1498.76 92.3035H1558.66M1498.76 92.3035L1480.32 85.8637M1498.76 92.3035H1438.86M1498.76 92.3035L1518.12 99.0637M1558.66 92.3035L1538.8 85.8637M1558.66 92.3035L1579.51 99.0637M1558.66 92.3035H1595.65M1480.32 85.8637H1538.8M1480.32 85.8637H1421.84M1480.32 85.8637L1462.74 79.7218M1538.8 85.8637L1519.86 79.7218M1538.8 85.8637H1595.65M1429.9 68.2525H1484.5M1429.9 68.2525L1414.54 62.8904M1429.9 68.2525H1375.29M1429.9 68.2525L1445.94 73.8576M1484.5 68.2525L1467.96 62.8904M1484.5 68.2525L1501.78 73.8576M1484.5 68.2525H1539.1M1414.54 62.8904H1467.96M1414.54 62.8904H1361.12M1414.54 62.8904L1399.84 57.755M1467.96 62.8904L1452.13 57.755M1467.96 62.8904H1521.39M1372.22 48.1101H1422.39M1372.22 48.1101L1359.24 43.5757M1372.22 48.1101H1322.06M1372.22 48.1101L1385.74 52.8325M1422.39 48.1101L1408.41 43.5757M1422.39 48.1101L1436.95 52.8325M1422.39 48.1101H1472.55M1359.24 43.5757H1408.41M1359.24 43.5757H1310.07M1359.24 43.5757L1346.76 39.2183M1408.41 43.5757L1394.97 39.2183M1408.41 43.5757H1457.57M1323.22 30.9946H1369.61M1323.22 30.9946L1312.09 27.1104M1323.22 30.9946H1276.82M1323.22 30.9946L1334.76 35.0275M1369.61 30.9946L1357.64 27.1104M1369.61 30.9946L1382.05 35.0275M1369.61 30.9946H1416.01M1312.09 27.1104H1357.64M1312.09 27.1104H1266.55M1312.09 27.1104L1301.37 23.3667M1357.64 27.1104L1346.09 23.3667M1357.64 27.1104H1403.18M1281.06 16.2716H1324.21M1281.06 16.2716L1271.43 12.9068M1281.06 16.2716H1237.91M1281.06 16.2716L1291.04 19.7561M1324.21 16.2716L1313.84 12.9068M1324.21 16.2716L1334.96 19.7561M1324.21 16.2716H1367.37M1271.43 12.9068H1313.84M1271.43 12.9068L1262.12 9.65592M1271.43 12.9068H1229.01M1313.84 12.9068H1356.25M1313.84 12.9068L1303.81 9.65592M1572.89 48.1101L1555.91 43.5757M1572.89 48.1101H1522.72M1572.89 48.1101L1590.57 52.8325M1572.89 48.1101H1595.65M1555.91 43.5757H1506.74M1555.91 43.5757L1539.59 39.2183M1555.91 43.5757H1595.65M1508.8 30.9946H1555.2M1508.8 30.9946L1494.26 27.1104M1508.8 30.9946H1462.41M1508.8 30.9946L1523.9 35.0275M1555.2 30.9946L1539.8 27.1104M1555.2 30.9946L1571.19 35.0275M1555.2 30.9946H1595.65M1494.26 27.1104H1539.8M1494.26 27.1104H1448.72M1494.26 27.1104L1480.24 23.3667M1539.8 27.1104L1524.96 23.3667M1539.8 27.1104H1585.34M1453.67 16.2716H1496.83M1453.67 16.2716L1441.08 12.9068M1453.67 16.2716H1410.52M1453.67 16.2716L1466.72 19.7561M1496.83 16.2716L1483.49 12.9068M1496.83 16.2716L1510.64 19.7561M1496.83 16.2716H1539.98M1441.08 12.9068H1483.49M1441.08 12.9068L1428.9 9.65592M1441.08 12.9068H1398.66M1483.49 12.9068H1525.9M1483.49 12.9068L1470.6 9.65592M1510.64 19.7561L1524.96 23.3667M1510.64 19.7561H1554.56M1510.64 19.7561H1466.72M1539.98 16.2716L1525.9 12.9068M1539.98 16.2716L1554.56 19.7561M1539.98 16.2716H1583.14M1525.9 12.9068H1568.31M1525.9 12.9068L1512.3 9.65592M1470.6 9.65592H1428.9M1470.6 9.65592H1512.3M1470.6 9.65592L1458.14 6.51268M1554.56 19.7561L1569.67 23.3667M1554.56 19.7561H1595.65M1583.14 16.2716L1568.31 12.9068M1583.14 16.2716L1595.65 19.1132M1583.14 16.2716H1595.65M1568.31 12.9068L1553.99 9.65592M1568.31 12.9068H1595.65M1512.3 9.65592H1553.99M1512.3 9.65592L1499.14 6.51268M1553.99 9.65592L1540.15 6.51268M1553.99 9.65592H1595.65M1524.96 23.3667H1569.67M1524.96 23.3667H1480.24M1585.34 27.1104L1569.67 23.3667M1585.34 27.1104L1595.65 29.5746M1585.34 27.1104H1595.65M1569.67 23.3667H1595.65M1480.24 23.3667H1435.52M1480.24 23.3667L1466.72 19.7561M1466.72 19.7561H1422.8M1571.19 35.0275L1587.8 39.2183M1571.19 35.0275H1523.9M1571.19 35.0275H1595.65M1595.8 30.9946H1595.65M1587.8 39.2183H1539.59M1587.8 39.2183L1595.65 41.1989M1587.8 39.2183H1595.65M1539.59 39.2183H1491.39M1539.59 39.2183L1523.9 35.0275M1523.9 35.0275H1476.62M1334.96 19.7561L1346.09 23.3667M1334.96 19.7561H1378.88M1334.96 19.7561H1291.04M1367.37 16.2716L1356.25 12.9068M1367.37 16.2716L1378.88 19.7561M1367.37 16.2716H1410.52M1356.25 12.9068H1398.66M1356.25 12.9068L1345.51 9.65592M1303.81 9.65592H1345.51M1303.81 9.65592L1294.12 6.51268M1303.81 9.65592H1262.12M1378.88 19.7561L1390.81 23.3667M1378.88 19.7561H1422.8M1410.52 16.2716L1398.66 12.9068M1410.52 16.2716L1422.8 19.7561M1398.66 12.9068L1387.21 9.65592M1345.51 9.65592H1387.21M1345.51 9.65592L1335.13 6.51268M1422.8 19.7561L1435.52 23.3667M1428.9 9.65592H1387.21M1428.9 9.65592L1417.13 6.51268M1387.21 9.65592L1376.13 6.51268M1346.09 23.3667H1390.81M1346.09 23.3667H1301.37M1403.18 27.1104L1390.81 23.3667M1403.18 27.1104L1416.01 30.9946M1403.18 27.1104H1448.72M1390.81 23.3667H1435.52M1301.37 23.3667H1256.66M1301.37 23.3667L1291.04 19.7561M1435.52 23.3667L1448.72 27.1104M1291.04 19.7561H1247.12M1416.01 30.9946L1429.33 35.0275M1416.01 30.9946H1462.41M1448.72 27.1104L1462.41 30.9946M1462.41 30.9946L1476.62 35.0275M1382.05 35.0275L1394.97 39.2183M1382.05 35.0275H1429.33M1382.05 35.0275H1334.76M1429.33 35.0275L1443.18 39.2183M1429.33 35.0275H1476.62M1476.62 35.0275L1491.39 39.2183M1394.97 39.2183H1443.18M1394.97 39.2183H1346.76M1457.57 43.5757L1443.18 39.2183M1457.57 43.5757L1472.55 48.1101M1457.57 43.5757H1506.74M1443.18 39.2183H1491.39M1346.76 39.2183H1298.55M1346.76 39.2183L1334.76 35.0275M1491.39 39.2183L1506.74 43.5757M1334.76 35.0275H1287.48M1472.55 48.1101L1488.16 52.8325M1472.55 48.1101H1522.72M1506.74 43.5757L1522.72 48.1101M1522.72 48.1101L1539.36 52.8325M1436.95 52.8325L1452.13 57.755M1436.95 52.8325H1488.16M1436.95 52.8325H1385.74M1488.16 52.8325L1504.42 57.755M1488.16 52.8325H1539.36M1539.36 52.8325L1556.71 57.755M1539.36 52.8325H1590.57M1590.57 52.8325H1595.65M1590.57 52.8325L1595.65 54.1902M1452.13 57.755H1504.42M1452.13 57.755H1399.84M1521.39 62.8904L1504.42 57.755M1521.39 62.8904L1539.1 68.2525M1521.39 62.8904H1574.81M1504.42 57.755H1556.71M1399.84 57.755H1347.55M1399.84 57.755L1385.74 52.8325M1556.71 57.755L1574.81 62.8904M1556.71 57.755H1595.65M1385.74 52.8325H1334.54M1539.1 68.2525L1557.62 73.8576M1539.1 68.2525H1593.7M1574.81 62.8904L1593.7 68.2525M1574.81 62.8904H1595.65M1595.93 57.755H1595.65M1593.7 68.2525L1595.65 68.8059M1593.7 68.2525H1595.65M1501.78 73.8576L1519.86 79.7218M1501.78 73.8576H1557.62M1501.78 73.8576H1445.94M1557.62 73.8576L1576.99 79.7218M1557.62 73.8576H1595.65M1596.13 68.9397L1595.65 68.8059M1519.86 79.7218H1576.99M1519.86 79.7218H1462.74M1576.99 79.7218H1595.65M1576.99 79.7218L1595.65 85.3701M1462.74 79.7218H1405.61M1462.74 79.7218L1445.94 73.8576M1445.94 73.8576H1390.11M1579.51 99.0637H1518.12M1579.51 99.0637L1595.65 104.301M1579.51 99.0637H1595.65M1596.1 92.3035H1595.65M1518.12 99.0637H1456.73M1518.12 99.0637L1538.46 106.168M1595.83 104.358L1595.65 104.301M1159.27 19.7561L1167.23 23.3667M1159.27 19.7561H1203.19M1159.27 19.7561H1115.35M1194.75 16.2716L1186.6 12.9068M1194.75 16.2716L1203.19 19.7561M1194.75 16.2716H1237.91M1186.6 12.9068H1229.01M1186.6 12.9068L1178.72 9.65592M1137.03 9.65592H1178.72M1137.03 9.65592L1134.4 8.46492L1130.1 6.51268M1137.03 9.65592H1095.33M1203.19 19.7561L1211.94 23.3667M1203.19 19.7561H1247.12M1237.91 16.2716L1229.01 12.9068M1237.91 16.2716L1247.12 19.7561M1229.01 12.9068L1220.42 9.65592M1178.72 9.65592H1220.42M1178.72 9.65592L1171.11 6.51268M1247.12 19.7561L1256.66 23.3667M1262.12 9.65592L1253.12 6.51268M1262.12 9.65592H1220.42M1220.42 9.65592L1219.37 9.2568L1217.27 8.46492L1212.11 6.51268M1167.23 23.3667H1211.94M1167.23 23.3667H1122.51M1221.01 27.1104L1211.94 23.3667M1221.01 27.1104L1230.42 30.9946M1221.01 27.1104H1266.55M1211.94 23.3667H1256.66M1122.51 23.3667H1077.79M1122.51 23.3667L1115.35 19.7561M1256.66 23.3667L1266.55 27.1104M1115.35 19.7561H1071.43M1230.42 30.9946L1240.19 35.0275M1230.42 30.9946H1276.82M1266.55 27.1104L1267.82 27.5876L1276.82 30.9946M1276.82 30.9946L1287.48 35.0275M1192.91 35.0275L1194.04 35.5429L1202.14 39.2183M1192.91 35.0275H1240.19M1192.91 35.0275H1145.63M1240.19 35.0275L1250.35 39.2183M1240.19 35.0275H1287.48M1287.48 35.0275L1298.55 39.2183M1202.14 39.2183H1250.35M1202.14 39.2183H1153.93M1260.9 43.5757L1250.35 39.2183M1260.9 43.5757L1271.89 48.1101M1260.9 43.5757H1310.07M1250.35 39.2183H1298.55M1153.93 39.2183H1105.72M1153.93 39.2183L1145.63 35.0275M1298.55 39.2183L1310.07 43.5757M1145.63 35.0275H1098.34M1271.89 48.1101L1283.33 52.8325M1271.89 48.1101H1322.06M1310.07 43.5757L1322.06 48.1101M1322.06 48.1101L1334.54 52.8325M1232.13 52.8325L1242.97 57.755M1232.13 52.8325H1283.33M1232.13 52.8325H1180.92M1283.33 52.8325L1295.26 57.755M1283.33 52.8325H1334.54M1334.54 52.8325L1347.55 57.755M1242.97 57.755H1295.26M1242.97 57.755H1190.68M1307.7 62.8904L1295.26 57.755M1307.7 62.8904L1320.69 68.2525M1307.7 62.8904H1361.12M1295.26 57.755H1347.55M1190.68 57.755H1138.39M1190.68 57.755L1180.92 52.8325M1347.55 57.755L1361.12 62.8904M1180.92 52.8325H1129.71M1320.69 68.2525L1334.27 73.8576M1320.69 68.2525H1375.29M1361.12 62.8904L1375.29 68.2525M1375.29 68.2525L1390.11 73.8576M1278.43 73.8576L1291.35 79.7218M1278.43 73.8576H1334.27M1278.43 73.8576H1222.6M1334.27 73.8576L1348.48 79.7218M1334.27 73.8576H1390.11M1390.11 73.8576L1405.61 79.7218M1291.35 79.7218H1348.48M1291.35 79.7218H1234.22M1363.36 85.8637L1348.48 79.7218M1363.36 85.8637L1378.96 92.3035M1363.36 85.8637H1421.84M1348.48 79.7218H1405.61M1234.22 79.7218H1177.09M1234.22 79.7218L1222.6 73.8576M1405.61 79.7218L1421.84 85.8637M1222.6 73.8576H1166.76M1378.96 92.3035L1395.34 99.0637M1378.96 92.3035H1438.86M1421.84 85.8637L1438.86 92.3035M1438.86 92.3035L1456.73 99.0637M1333.95 99.0637L1349.6 106.168M1333.95 99.0637H1395.34M1333.95 99.0637H1272.56M1395.34 99.0637L1412.55 106.168M1395.34 99.0637H1456.73M1456.73 99.0637L1475.51 106.168M1349.6 106.168H1412.55M1349.6 106.168H1286.64M1430.66 113.644L1412.55 106.168M1430.66 113.644L1449.75 121.522M1430.66 113.644H1495.27M1412.55 106.168H1475.51M1286.64 106.168H1223.69M1286.64 106.168L1272.56 99.0637M1475.51 106.168L1495.27 113.644M1475.51 106.168H1538.46M1272.56 99.0637H1211.17M1449.75 121.522L1469.89 129.836M1449.75 121.522H1516.09M1495.27 113.644L1516.09 121.522M1538.46 106.168H1595.65M1516.09 121.522L1538.06 129.836M1401.73 129.836L1421.07 138.62M1401.73 129.836H1469.89M1401.73 129.836H1333.56M1469.89 129.836L1491.17 138.62M1469.89 129.836H1538.06M1538.06 129.836L1561.28 138.62M1538.06 129.836H1595.65M1421.07 138.62H1491.17M1421.07 138.62H1350.97M1513.7 147.918L1491.17 138.62M1513.7 147.918L1537.58 157.775M1513.7 147.918H1585.85M1491.17 138.62H1561.28M1350.97 138.62H1280.87M1350.97 138.62L1333.56 129.836M1561.28 138.62L1585.85 147.918M1561.28 138.62H1595.65M1333.56 129.836H1265.39M1537.58 157.775L1562.95 168.245M1537.58 157.775H1595.65M1585.85 147.918H1595.65M1585.85 147.918L1595.65 151.627M1486.32 168.245L1510.86 179.385M1486.32 168.245H1562.95M1486.32 168.245H1409.7M1562.95 168.245L1589.94 179.385M1562.95 168.245H1595.65M1510.86 179.385H1589.94M1510.86 179.385H1431.78M1589.94 179.385L1595.65 181.744M1589.94 179.385H1595.65M1431.78 179.385H1352.7M1431.78 179.385L1409.7 168.245M1409.7 168.245H1333.07M1594.89 217.539H1507.41M1594.89 217.539H1595.65M1594.89 217.539L1595.65 217.884M1507.41 217.539H1419.93M1507.41 217.539L1536.33 232.125M983.589 19.7561L985.358 21.0946L985.953 21.5452L988.36 23.3667M983.589 19.7561H1027.51M983.589 19.7561H939.668M1022.14 16.2716L1018.23 13.7374L1016.95 12.9068M1022.14 16.2716L1026.83 19.3136L1027.51 19.7561M1022.14 16.2716H1065.29M1016.95 12.9068H1059.36M1016.95 12.9068L1011.94 9.65592M970.242 9.65592H1011.94M970.242 9.65592L968.668 8.46492L966.088 6.51268M970.242 9.65592H928.545M1027.51 19.7561L1028.88 20.6463L1033.08 23.3667M1027.51 19.7561H1071.43M1065.29 16.2716L1059.36 12.9068M1065.29 16.2716L1071.43 19.7561M1059.36 12.9068L1055.05 10.4582L1053.63 9.65592M1011.94 9.65592H1053.63M1011.94 9.65592L1007.09 6.51268M1071.43 19.7561L1077.79 23.3667M1095.33 9.65592L1094.54 9.2568L1089.1 6.51268M1095.33 9.65592H1053.63M1053.63 9.65592L1051.54 8.46492L1048.1 6.51268M988.36 23.3667H1033.08M988.36 23.3667H943.644M1038.85 27.1104L1033.08 23.3667M1038.85 27.1104L1044.84 30.9946M1038.85 27.1104H1084.39M1033.08 23.3667H1077.79M943.644 23.3667H898.928M943.644 23.3667L939.668 19.7561M1077.79 23.3667L1084.39 27.1104M939.668 19.7561H895.747M1044.84 30.9946L1048.7 33.4975L1049.48 34.0048L1051.06 35.0275M1044.84 30.9946H1091.23M1084.39 27.1104L1091.23 30.9946M1091.23 30.9946L1098.34 35.0275M1003.77 35.0275L1009.31 39.2183M1003.77 35.0275H1051.06M1003.77 35.0275H956.486M1051.06 35.0275L1057.52 39.2183M1051.06 35.0275H1098.34M1098.34 35.0275L1105.72 39.2183M1009.31 39.2183H1057.52M1009.31 39.2183H961.101M1064.23 43.5757L1060 40.8321L1059.17 40.2913L1057.52 39.2183M1064.23 43.5757L1071.23 48.1101M1064.23 43.5757H1113.4M1057.52 39.2183H1105.72M961.101 39.2183H912.893M961.101 39.2183L956.486 35.0275M1105.72 39.2183L1113.4 43.5757M956.486 35.0275H909.201M1071.23 48.1101L1078.51 52.8325M1071.23 48.1101H1121.39M1113.4 43.5757L1121.39 48.1101M1121.39 48.1101L1129.71 52.8325M1027.3 52.8325L1030.52 55.2677L1031.33 55.8849L1033.81 57.755M1027.3 52.8325H1078.51M1027.3 52.8325H976.094M1078.51 52.8325L1086.1 57.755M1078.51 52.8325H1129.71M1129.71 52.8325L1138.39 57.755M1033.81 57.755H1086.1M1033.81 57.755H981.515M1094.01 62.8904L1086.1 57.755M1094.01 62.8904L1102.28 68.2525M1094.01 62.8904H1147.43M1086.1 57.755H1138.39M981.515 57.755H929.224M981.515 57.755L980.138 56.505L976.094 52.8325M1138.39 57.755L1147.43 62.8904M976.094 52.8325H924.888M1102.28 68.2525L1110.92 73.8576M1102.28 68.2525H1156.88M1147.43 62.8904L1156.88 68.2525M1156.88 68.2525L1166.76 73.8576M1055.08 73.8576L1062.83 79.7218M1055.08 73.8576H1110.92M1055.08 73.8576H999.248M1110.92 73.8576L1119.96 79.7218M1110.92 73.8576H1166.76M1166.76 73.8576L1177.09 79.7218M1062.83 79.7218H1119.96M1062.83 79.7218H1005.71M1129.43 85.8637L1119.96 79.7218M1129.43 85.8637L1139.36 92.3035M1129.43 85.8637H1187.91M1119.96 79.7218H1177.09M1005.71 79.7218H948.577M1005.71 79.7218L999.248 73.8576M1177.09 79.7218L1187.91 85.8637M999.248 73.8576H943.411M1139.36 92.3035L1149.78 99.0637M1139.36 92.3035H1199.26M1187.91 85.8637L1199.26 92.3035M1199.26 92.3035L1211.17 99.0637M1088.4 99.0637L1097.78 106.168M1088.4 99.0637H1149.78M1088.4 99.0637H1027.01M1149.78 99.0637L1160.74 106.168M1149.78 99.0637H1211.17M1211.17 99.0637L1223.69 106.168M1097.78 106.168H1160.74M1097.78 106.168H1034.83M1172.26 113.644L1160.74 106.168M1172.26 113.644L1184.41 121.522M1172.26 113.644H1236.86M1160.74 106.168H1223.69M1034.83 106.168H971.877M1034.83 106.168L1027.01 99.0637M1223.69 106.168L1236.86 113.644M1027.01 99.0637H965.618M1184.41 121.522L1197.23 129.836M1184.41 121.522H1250.75M1236.86 113.644L1250.75 121.522M1250.75 121.522L1265.39 129.836M1129.06 129.836L1140.67 138.62M1129.06 129.836H1197.23M1129.06 129.836H1060.89M1197.23 129.836L1210.77 138.62M1197.23 129.836H1265.39M1265.39 129.836L1280.87 138.62M1140.67 138.62H1210.77M1140.67 138.62H1070.57M1225.11 147.918L1210.77 138.62M1225.11 147.918L1240.3 157.775M1225.11 147.918H1297.25M1210.77 138.62H1280.87M1070.57 138.62H1000.47M1070.57 138.62L1060.89 129.836M1280.87 138.62L1297.25 147.918M1060.89 129.836H992.728M1240.3 157.775L1256.45 168.245M1240.3 157.775H1314.62M1297.25 147.918L1314.62 157.775M1314.62 157.775L1333.07 168.245M1179.82 168.245L1194.54 179.385M1179.82 168.245H1256.45M1179.82 168.245H1103.19M1256.45 168.245L1273.62 179.385M1256.45 168.245H1333.07M1333.07 168.245L1352.7 179.385M1194.54 179.385H1273.62M1194.54 179.385H1115.46M1291.93 191.261L1273.62 179.385M1291.93 191.261L1311.49 203.951M1291.93 191.261H1373.63M1273.62 179.385H1352.7M1115.46 179.385H1036.38M1115.46 179.385L1103.19 168.245M1352.7 179.385L1373.63 191.261M1103.19 168.245H1026.57M1311.49 203.951L1332.44 217.539M1311.49 203.951H1395.99M1373.63 191.261L1395.99 203.951M1395.99 203.951L1419.93 217.539M1244.96 217.539L1264.24 232.125M1244.96 217.539H1332.44M1244.96 217.539H1157.48M1332.44 217.539L1354.93 232.125M1332.44 217.539H1419.93M1419.93 217.539L1445.63 232.125M1264.24 232.125H1354.93M1264.24 232.125H1173.54M1379.14 247.824L1354.93 232.125M1379.14 247.824L1405.26 264.767M1379.14 247.824H1473.29M1354.93 232.125H1445.63M1173.54 232.125H1082.85M1173.54 232.125L1157.48 217.539M1445.63 232.125L1473.29 247.824M1445.63 232.125H1536.33M1157.48 217.539H1070M1405.26 264.767L1433.54 283.108M1405.26 264.767H1503.14M1473.29 247.824L1503.14 264.767M1536.33 232.125H1595.65M1503.14 264.767L1535.46 283.108M1503.14 264.767H1595.65M1331.61 283.108L1357.94 303.028M1331.61 283.108H1433.54M1331.61 283.108H1229.69M1433.54 283.108L1464.25 303.028M1433.54 283.108H1535.46M1535.46 283.108L1570.56 303.028M1535.46 283.108H1595.65M1357.94 303.028H1464.25M1357.94 303.028H1251.62M1497.72 324.741L1464.25 303.028M1497.72 324.741L1534.35 348.498M1497.72 324.741H1595.65M1464.25 303.028H1570.56M1251.62 303.028H1145.31M1251.62 303.028L1229.69 283.108M1570.56 303.028H1595.65M1570.56 303.028L1595.65 317.269M1229.69 283.108H1127.76M1534.35 348.498L1574.6 374.605M1534.35 348.498H1595.65M1452.53 374.605L1490.61 403.427M1452.53 374.605H1574.6M1452.53 374.605H1330.45M1574.6 374.605L1595.65 388.259M1574.6 374.605H1595.65M1595.65 403.426L1490.61 403.427H1362.19M1362.19 403.427H1233.76M1362.19 403.427L1330.45 374.605M1330.45 374.605H1208.37M807.904 19.7561L808.101 20.2003L808.297 20.6463L808.495 21.0946L808.692 21.5452L809.294 22.908L809.495 23.3667M807.904 19.7561H851.826M807.904 19.7561H763.984M849.523 16.2716L847.849 13.7374L847.301 12.9068M849.523 16.2716L850.953 18.4349L851.826 19.7561M849.523 16.2716H892.677M847.301 12.9068H889.713M847.301 12.9068L845.683 10.4582L845.152 9.65592M803.455 9.65592L803.28 9.2568L802.585 7.67881L802.071 6.51268M803.455 9.65592H845.152M803.455 9.65592H761.759M851.826 19.7561L852.119 20.2003L852.415 20.6463L852.71 21.0946L853.008 21.5452L854.211 23.3667M851.826 19.7561H895.747M892.677 16.2716L890.444 13.7374L889.713 12.9068M892.677 16.2716L895.747 19.7561M889.713 12.9068L888.268 11.2675L887.201 10.0562L886.849 9.65592M845.152 9.65592L844.889 9.2568L844.366 8.46492L843.846 7.67881L843.588 7.28837L843.075 6.51268M845.152 9.65592H886.849M895.747 19.7561L898.122 22.4516L898.928 23.3667M928.545 9.65592L925.939 7.28837L925.084 6.51268M928.545 9.65592H886.849M886.849 9.65592L884.421 6.89966L884.079 6.51268M809.495 23.3667H854.211M809.495 23.3667H764.779M856.685 27.1104L854.211 23.3667M856.685 27.1104L859.252 30.9946M856.685 27.1104H902.226M854.211 23.3667H898.928M764.779 23.3667H720.063M764.779 23.3667L763.984 19.7561M898.928 23.3667L902.226 27.1104M763.984 19.7561H720.063M859.252 30.9946L859.909 31.9884L860.906 33.4975L861.917 35.0275M859.252 30.9946H905.649M902.226 27.1104L902.647 27.5876L905.649 30.9946M905.649 30.9946L906.085 31.4903L906.524 31.9884L906.965 32.4893L909.201 35.0275M814.632 35.0275L816.478 39.2183M814.632 35.0275H861.917M814.632 35.0275H767.347M861.917 35.0275L864.686 39.2183M861.917 35.0275H909.201M909.201 35.0275L911.957 38.1551L912.424 38.6855L912.893 39.2183M816.478 39.2183H864.686M816.478 39.2183H768.27M867.565 43.5757L867.933 44.1327L868.303 44.6921L868.674 45.2549L870.561 48.1101M867.565 43.5757L866.111 41.3753L865.752 40.8321L865.395 40.2913L864.686 39.2183M867.565 43.5757H916.732M864.686 39.2183H912.893M768.27 39.2183H720.063M768.27 39.2183L767.347 35.0275M912.893 39.2183L916.732 43.5757M767.347 35.0275H720.063M870.561 48.1101L873.285 52.2315L873.681 52.8325M870.561 48.1101H920.727M916.732 43.5757L917.716 44.6921L920.727 48.1101M920.727 48.1101L922.268 49.8581L924.888 52.8325M822.475 52.8325L823.548 55.2677L823.819 55.8849L824.644 57.755M822.475 52.8325H873.681M822.475 52.8325H771.269M873.681 52.8325L876.934 57.755M873.681 52.8325H924.888M924.888 52.8325L929.224 57.755M824.644 57.755H876.934M824.644 57.755H772.353M880.327 62.8904L876.934 57.755M880.327 62.8904L883.87 68.2525M880.327 62.8904H933.749M876.934 57.755H929.224M772.353 57.755H720.063M772.353 57.755L772.077 56.505L771.536 54.0437L771.269 52.8325M929.224 57.755L933.749 62.8904M771.269 52.8325H720.063M883.87 68.2525L886.632 72.4329L887.574 73.8576M883.87 68.2525H938.473M933.749 62.8904L938.473 68.2525M938.473 68.2525L940.914 71.0238L943.411 73.8576M831.737 73.8576L834.32 79.7218M831.737 73.8576H887.574M831.737 73.8576H775.9M887.574 73.8576L891.449 79.7218M887.574 73.8576H943.411M943.411 73.8576L948.577 79.7218M834.32 79.7218H891.449M834.32 79.7218H777.191M895.507 85.8637L894.474 84.3013L891.449 79.7218M895.507 85.8637L899.762 92.3035M895.507 85.8637H953.989M891.449 79.7218H948.577M777.191 79.7218H720.063M777.191 79.7218L775.9 73.8576M948.577 79.7218L953.989 85.8637M775.9 73.8576H720.063M899.762 92.3035L904.229 99.0637M899.762 92.3035H959.662M953.989 85.8637L959.662 92.3035M959.662 92.3035L965.618 99.0637M842.841 99.0637L845.97 106.168M842.841 99.0637H904.229M842.841 99.0637H781.452M904.229 99.0637L908.923 106.168M904.229 99.0637H965.618M965.618 99.0637L971.877 106.168M845.97 106.168H908.923M845.97 106.168H783.016M913.864 113.644L908.923 106.168M913.864 113.644L919.069 121.522M913.864 113.644H978.463M908.923 106.168H971.877M783.016 106.168H720.063M783.016 106.168L781.642 99.9325L781.452 99.0637M971.877 106.168L978.463 113.644M781.452 99.0637H720.063M919.069 121.522L924.561 129.836M919.069 121.522H985.404M978.463 113.644L983.634 119.514L985.404 121.522M985.404 121.522L992.728 129.836M856.395 129.836L860.265 138.62M856.395 129.836H924.561M856.395 129.836H788.229M924.561 129.836L930.366 138.62M924.561 129.836H992.728M992.728 129.836L1000.47 138.62M860.265 138.62H930.366M860.265 138.62H790.164M936.51 147.918L930.366 138.62M936.51 147.918L943.023 157.775M936.51 147.918H1008.66M930.366 138.62H1000.47M790.164 138.62H720.063M790.164 138.62L788.229 129.836M1000.47 138.62L1008.66 147.918M788.229 129.836H720.063M943.023 157.775L949.941 168.245M943.023 157.775H1017.34M1008.66 147.918L1017.34 157.775M1017.34 157.775L1026.57 168.245M873.315 168.245L878.222 179.385M873.315 168.245H949.941M873.315 168.245H796.689M949.941 168.245L957.301 179.385M949.941 168.245H1026.57M1026.57 168.245L1036.38 179.385M878.222 179.385H957.301M878.222 179.385H799.142M965.149 191.261L957.301 179.385M965.149 191.261L973.533 203.951M965.149 191.261H1046.84M957.301 179.385H1036.38M799.142 179.385H720.063M799.142 179.385L796.689 168.245M1036.38 179.385L1046.84 191.261M796.689 168.245H720.063M973.533 203.951L982.512 217.539M973.533 203.951H1058.02M1046.84 191.261L1058.02 203.951M1058.02 203.951L1070 217.539M895.028 217.539L901.454 232.125M895.028 217.539H982.512M895.028 217.539H807.546M982.512 217.539L992.15 232.125M982.512 217.539H1070M1070 217.539L1082.85 232.125M901.454 232.125H992.15M901.454 232.125H810.758M1002.52 247.824L992.15 232.125M1002.52 247.824L1013.72 264.767M1002.52 247.824H1096.68M992.15 232.125H1082.85M810.758 232.125H720.063M810.758 232.125L807.546 217.539M1082.85 232.125L1096.68 247.824M807.546 217.539H720.063M1013.72 264.767L1025.84 283.108M1013.72 264.767H1111.6M1096.68 247.824L1111.6 264.767M1111.6 264.767L1127.76 283.108M923.912 283.108L932.687 303.028M923.912 283.108H1025.84M923.912 283.108H821.988M1025.84 283.108L1039 303.028M1025.84 283.108H1127.76M1127.76 283.108L1145.31 303.028M932.687 303.028H1039M932.687 303.028H826.375M1053.35 324.741L1039 303.028M1053.35 324.741L1069.04 348.498M1053.35 324.741H1164.44M1039 303.028H1145.31M826.375 303.028H720.063M826.375 303.028L821.988 283.108M1145.31 303.028L1164.44 324.741M821.988 283.108H720.063M1069.04 348.498L1086.29 374.605M1069.04 348.498H1185.37M1164.44 324.741L1185.37 348.498M1185.37 348.498L1208.37 374.605M964.217 374.605L976.913 403.427M964.217 374.605H1086.29M964.217 374.605H842.14M1086.29 374.605L1105.34 403.427M1086.29 374.605H1208.37M1208.37 374.605L1233.76 403.427M1105.34 403.427H976.913M1105.34 403.427H1233.76M976.913 403.427H848.488M848.488 403.427H720.063M848.488 403.427L842.14 374.605M842.14 374.605H720.063M632.221 19.7561L632.025 20.2003L631.829 20.6463L631.631 21.0946L631.433 21.5452L631.033 22.4516L630.832 22.908L630.63 23.3667M632.221 19.7561H676.142M632.221 19.7561H588.299M676.909 16.2716L677.65 12.9068M676.909 16.2716L676.142 19.7561M676.909 16.2716H720.063M677.65 12.9068L677.741 12.4943L677.832 12.0836L677.921 11.6747L678.366 9.65592M677.65 12.9068H720.063M636.67 9.65592L636.845 9.2568L637.54 7.67881L638.054 6.51268M636.67 9.65592H678.366M636.67 9.65592H594.973M676.142 19.7561L676.043 20.2003L675.946 20.6463L675.846 21.0946L675.346 23.3667M676.142 19.7561H720.063M720.063 16.2716V12.9068M720.063 16.2716V19.7561M720.063 12.9068V9.65592M678.366 9.65592H720.063M678.366 9.65592L678.628 8.46492L678.716 8.071L679.059 6.51268M720.063 19.7561V23.3667M761.759 9.65592L761.497 8.46492L761.41 8.071L761.324 7.67881L761.237 7.28837L761.153 6.89966L761.067 6.51268M761.759 9.65592H720.063M720.063 9.65592V6.51268M630.63 23.3667H675.346M630.63 23.3667H585.914M674.522 27.1104L674.416 27.5876L674.311 28.0677L673.666 30.9946M674.522 27.1104L675.346 23.3667M674.522 27.1104H720.063M675.346 23.3667H720.063M585.914 23.3667H541.198M585.914 23.3667L586.518 22.4516L586.819 21.9975L587.117 21.5452L587.415 21.0946L587.711 20.6463L588.006 20.2003L588.299 19.7561M720.063 23.3667V27.1104M588.299 19.7561H544.378M673.666 30.9946L672.778 35.0275M673.666 30.9946H720.063M720.063 27.1104V30.9946M720.063 30.9946V35.0275M625.493 35.0275L623.647 39.2183M625.493 35.0275H672.778M625.493 35.0275H578.209M672.778 35.0275L671.855 39.2183M672.778 35.0275H720.063M720.063 35.0275V39.2183M623.647 39.2183H671.855M623.647 39.2183H575.44M670.895 43.5757L671.855 39.2183M670.895 43.5757L669.897 48.1101M670.895 43.5757H720.063M671.855 39.2183H720.063M575.44 39.2183H527.232M575.44 39.2183L578.209 35.0275M720.063 39.2183V43.5757M578.209 35.0275H530.924M669.897 48.1101L669.512 49.8581L669.121 51.6333L668.856 52.8325M669.897 48.1101H720.063M720.063 43.5757V48.1101M720.063 48.1101V52.8325M617.65 52.8325L616.577 55.2677L616.306 55.8849L615.481 57.755M617.65 52.8325H668.856M617.65 52.8325H566.444M668.856 52.8325L668.59 54.0437L668.048 56.505L667.773 57.755M668.856 52.8325H720.063M720.063 52.8325V57.755M615.481 57.755H667.773M615.481 57.755H563.191M666.642 62.8904L666.785 62.2362L667.773 57.755M666.642 62.8904L665.46 68.2525M666.642 62.8904H720.063M667.773 57.755H720.063M563.191 57.755H510.901M563.191 57.755L566.444 52.8325M720.063 57.755V62.8904M566.444 52.8325H515.237M665.46 68.2525L664.225 73.8576M665.46 68.2525H720.063M720.063 62.8904V68.2525M720.063 68.2525V73.8576M608.388 73.8576L605.805 79.7218M608.388 73.8576H664.225M608.388 73.8576H552.551M664.225 73.8576L662.934 79.7218M664.225 73.8576H720.063M720.063 73.8576V79.7218M605.805 79.7218H662.934M605.805 79.7218H548.677M661.581 85.8637L662.934 79.7218M661.581 85.8637L660.163 92.3035M661.581 85.8637H720.063M662.934 79.7218H720.063M548.677 79.7218H491.548M548.677 79.7218L552.551 73.8576M720.063 79.7218V85.8637M552.551 73.8576H496.714M660.163 92.3035L658.674 99.0637M660.163 92.3035H720.063M720.063 85.8637V92.3035M720.063 92.3035V99.0637M597.285 99.0637L594.155 106.168M597.285 99.0637H658.674M597.285 99.0637H535.897M658.674 99.0637L657.109 106.168M658.674 99.0637H720.063M720.063 99.0637V106.168M594.155 106.168H657.109M594.155 106.168H531.202M655.462 113.644L657.109 106.168M655.462 113.644L653.728 121.522M655.462 113.644H720.063M657.109 106.168H720.063M531.202 106.168H468.248M531.202 106.168L535.897 99.0637M720.063 106.168V113.644M535.897 99.0637H474.508M653.728 121.522L651.896 129.836M653.728 121.522H720.063M720.063 113.644V121.522M720.063 121.522V129.836M583.73 129.836L579.86 138.62M583.73 129.836H651.896M583.73 129.836H515.564M651.896 129.836L649.962 138.62M651.896 129.836H720.063M720.063 129.836V138.62M579.86 138.62H649.962M579.86 138.62H509.759M647.914 147.918L649.962 138.62M647.914 147.918L645.742 157.775M647.914 147.918H720.063M649.962 138.62H720.063M509.759 138.62H439.658M509.759 138.62L515.564 129.836M720.063 138.62V147.918M515.564 129.836H447.397M645.742 157.775L643.437 168.245M645.742 157.775H720.063M720.063 147.918V157.775M720.063 157.775V168.245M566.81 168.245L561.904 179.385M566.81 168.245H643.437M566.81 168.245H490.184M643.437 168.245L640.983 179.385M643.437 168.245H720.063M720.063 168.245V179.385M561.904 179.385H640.983M561.904 179.385H482.824M638.367 191.261L640.983 179.385M638.367 191.261L635.573 203.951M638.367 191.261H720.063M640.983 179.385H720.063M482.824 179.385H403.744M482.824 179.385L490.184 168.245M720.063 179.385V191.261M490.184 168.245H413.558M635.573 203.951L632.579 217.539M635.573 203.951H720.063M720.063 191.261V203.951M720.063 203.951V217.539M545.097 217.539L538.671 232.125M545.097 217.539H632.579M545.097 217.539H457.613M632.579 217.539L629.367 232.125M632.579 217.539H720.063M720.063 217.539V232.125M538.671 232.125H629.367M538.671 232.125H447.975M625.909 247.824L629.367 232.125M625.909 247.824L622.178 264.767M625.909 247.824H720.063M629.367 232.125H720.063M447.975 232.125H357.28M447.975 232.125L457.613 217.539M720.063 232.125V247.824M457.613 217.539H370.13M622.178 264.767L618.137 283.108M622.178 264.767H720.063M720.063 247.824V264.767M720.063 264.767V283.108M516.213 283.108L507.438 303.028M516.213 283.108H618.137M516.213 283.108H414.288M618.137 283.108L613.75 303.028M618.137 283.108H720.063M720.063 283.108V303.028M507.438 303.028H613.75M507.438 303.028H401.126M608.968 324.741L613.75 303.028M608.968 324.741L603.736 348.498M608.968 324.741H720.063M613.75 303.028H720.063M401.126 303.028H294.814M401.126 303.028L414.288 283.108M720.063 303.028V324.741M414.288 283.108H312.364M603.736 348.498L597.985 374.605M603.736 348.498H720.063M720.063 324.741V348.498M720.063 348.498V374.605M475.909 374.605L463.213 403.427M475.909 374.605H597.985M475.909 374.605H353.831M597.985 374.605L591.637 403.427M597.985 374.605H720.063M720.063 374.605V403.427M591.637 403.427H463.213M591.637 403.427H720.063M463.213 403.427H334.787M334.787 403.427H206.362M334.787 403.427L353.831 374.605M353.831 374.605H231.754M456.536 19.7561L454.172 21.5452L451.765 23.3667M456.536 19.7561H500.457M456.536 19.7561H412.615M504.294 16.2716L508 12.9068M504.294 16.2716L500.457 19.7561M504.294 16.2716H547.448M508 12.9068H550.412M508 12.9068L510.696 10.4582L511.58 9.65592M469.883 9.65592H511.58M469.883 9.65592L471.458 8.46492L474.037 6.51268M469.883 9.65592H428.187M500.457 19.7561L496.481 23.3667M500.457 19.7561H544.378M547.448 16.2716L550.412 12.9068M547.448 16.2716L544.378 19.7561M550.412 12.9068L551.857 11.2675L552.924 10.0562L553.276 9.65592M511.58 9.65592H553.276M511.58 9.65592L514.187 7.28837L515.041 6.51268M544.378 19.7561L542.003 22.4516L541.198 23.3667M594.973 9.65592L595.236 9.2568L595.76 8.46492L596.537 7.28837L597.05 6.51268M594.973 9.65592H553.276M553.276 9.65592L553.627 9.2568L554.326 8.46492L556.045 6.51268M451.765 23.3667H496.481M451.765 23.3667H407.048M492.358 27.1104L492.882 26.6349L493.403 26.1611L495.464 24.2893L496.481 23.3667M492.358 27.1104L489.165 30.0095L488.08 30.9946M492.358 27.1104H537.9M496.481 23.3667H541.198M407.048 23.3667H362.332M407.048 23.3667L411.242 20.6463L412.615 19.7561M541.198 23.3667L537.9 27.1104M412.615 19.7561H368.693M488.08 30.9946L487.535 31.4903L486.986 31.9884L485.325 33.4975L484.765 34.0048L483.639 35.0275M488.08 30.9946H534.477M537.9 27.1104L537.478 27.5876L534.477 30.9946M534.477 30.9946L534.041 31.4903L533.601 31.9884L533.16 32.4893L530.924 35.0275M436.355 35.0275L430.817 39.2183M436.355 35.0275H483.639M436.355 35.0275H389.07M483.639 35.0275L479.024 39.2183M483.639 35.0275H530.924M530.924 35.0275L527.232 39.2183M430.817 39.2183H479.024M430.817 39.2183H382.609M474.226 43.5757L479.024 39.2183M474.226 43.5757L469.232 48.1101M474.226 43.5757H523.393M479.024 39.2183H527.232M382.609 39.2183H334.401M382.609 39.2183L389.07 35.0275M527.232 39.2183L523.393 43.5757M389.07 35.0275H341.784M469.232 48.1101L464.032 52.8325M469.232 48.1101H519.398M523.393 43.5757L522.409 44.6921L519.398 48.1101M519.398 48.1101L517.858 49.8581L516.293 51.6333L515.237 52.8325M412.825 52.8325L409.606 55.2677L406.32 57.755M412.825 52.8325H464.032M412.825 52.8325H361.618M464.032 52.8325L458.61 57.755M464.032 52.8325H515.237M515.237 52.8325L510.901 57.755M406.32 57.755H458.61M406.32 57.755H354.03M452.955 62.8904L458.61 57.755M452.955 62.8904L447.05 68.2525M452.955 62.8904H506.376M458.61 57.755H510.901M354.03 57.755H301.739M354.03 57.755L361.618 52.8325M510.901 57.755L506.376 62.8904M361.618 52.8325H310.413M447.05 68.2525L445.532 69.6304L440.878 73.8576M447.05 68.2525H501.652M506.376 62.8904L501.652 68.2525M501.652 68.2525L501.047 68.9397L499.211 71.0238L496.714 73.8576M385.041 73.8576L377.291 79.7218M385.041 73.8576H440.878M385.041 73.8576H329.203M440.878 73.8576L434.419 79.7218M440.878 73.8576H496.714M496.714 73.8576L491.548 79.7218M377.291 79.7218H434.419M377.291 79.7218H320.162M427.655 85.8637L431.92 81.9916L434.419 79.7218M427.655 85.8637L420.563 92.3035M427.655 85.8637H486.137M434.419 79.7218H491.548M320.162 79.7218H263.033M320.162 79.7218L329.203 73.8576M491.548 79.7218L486.137 85.8637M329.203 73.8576H273.366M420.563 92.3035L413.119 99.0637M420.563 92.3035H480.464M486.137 85.8637L480.464 92.3035M480.464 92.3035L474.508 99.0637M351.73 99.0637L342.341 106.168M351.73 99.0637H413.119M351.73 99.0637H290.342M413.119 99.0637L405.295 106.168M413.119 99.0637H474.508M474.508 99.0637L468.248 106.168M342.341 106.168H405.295M342.341 106.168H279.388M397.062 113.644L405.295 106.168M397.062 113.644L388.386 121.522M397.062 113.644H461.662M405.295 106.168H468.248M279.388 106.168H216.434M279.388 106.168L290.342 99.0637M468.248 106.168L461.662 113.644M290.342 99.0637H228.953M388.386 121.522L379.232 129.836M388.386 121.522H454.721M461.662 113.644L454.721 121.522M454.721 121.522L447.397 129.836M311.065 129.836L299.456 138.62M311.065 129.836H379.232M311.065 129.836H242.898M379.232 129.836L369.557 138.62M379.232 129.836H447.397M447.397 129.836L439.658 138.62M299.456 138.62H369.557M299.456 138.62H229.355M359.317 147.918L369.557 138.62M359.317 147.918L348.462 157.775M359.317 147.918H431.467M369.557 138.62H439.658M229.355 138.62H159.254M229.355 138.62L242.898 129.836M439.658 138.62L431.467 147.918M242.898 129.836H174.733M348.462 157.775L336.932 168.245M348.462 157.775H422.782M431.467 147.918L422.782 157.775M422.782 157.775L413.558 168.245M260.306 168.245L245.585 179.385M260.306 168.245H336.932M260.306 168.245H183.68M336.932 168.245L324.665 179.385M336.932 168.245H413.558M413.558 168.245L403.744 179.385M245.585 179.385H324.665M245.585 179.385H166.506M311.586 191.261L324.665 179.385M311.586 191.261L297.611 203.951M311.586 191.261H393.281M324.665 179.385H403.744M166.506 179.385H87.4262M166.506 179.385L183.68 168.245M403.744 179.385L393.281 191.261M183.68 168.245H107.054M297.611 203.951L282.647 217.539M297.611 203.951H382.102M393.281 191.261L382.102 203.951M382.102 203.951L370.13 217.539M195.164 217.539L175.888 232.125M195.164 217.539H282.647M195.164 217.539H107.681M282.647 217.539L266.584 232.125M282.647 217.539H370.13M370.13 217.539L357.28 232.125M175.888 232.125H266.584M175.888 232.125H85.1925M249.296 247.824L266.584 232.125M249.296 247.824L230.637 264.767M249.296 247.824H343.449M266.584 232.125H357.28M85.1925 232.125H-5.50322M85.1925 232.125L107.681 217.539M357.28 232.125L343.449 247.824M107.681 217.539H20.1972M230.637 264.767L210.439 283.108M230.637 264.767H328.522M343.449 247.824L328.522 264.767M328.522 264.767L312.364 283.108M108.514 283.108L82.189 303.028M108.514 283.108H210.439M108.514 283.108H6.58908M210.439 283.108L188.501 303.028M210.439 283.108H312.364M312.364 283.108L294.814 303.028M82.189 303.028H188.501M82.189 303.028H-24.1232M164.59 324.741L188.501 303.028M164.59 324.741L138.427 348.498M164.59 324.741H275.685M188.501 303.028H294.814M-24.1232 303.028H-130.435M-24.1232 303.028L6.58908 283.108M294.814 303.028L275.685 324.741M6.58908 283.108H-95.3352M138.427 348.498L109.677 374.605M138.427 348.498H254.754M275.685 324.741L254.754 348.498M254.754 348.498L231.754 374.605M-12.4003 374.605L-50.4885 403.427M-12.4003 374.605H109.677M-12.4003 374.605H-134.478M109.677 374.605L77.937 403.427M109.677 374.605H231.754M231.754 374.605L206.362 403.427M-155.528 403.426L-50.4885 403.427H77.937M77.937 403.427H206.362M-134.478 374.605L-155.528 388.259M-134.478 374.605H-155.528M280.852 19.7561L272.899 23.3667M280.852 19.7561H324.773M280.852 19.7561H236.931M331.68 16.2716L338.35 12.9068M331.68 16.2716L324.773 19.7561M331.68 16.2716H374.833M338.35 12.9068H380.762M338.35 12.9068L344.794 9.65592M303.097 9.65592H344.794M303.097 9.65592L305.721 8.46492L310.021 6.51268M303.097 9.65592H261.401M324.773 19.7561L317.615 23.3667M324.773 19.7561H368.693M374.833 16.2716L380.762 12.9068M374.833 16.2716L368.693 19.7561M380.762 12.9068L385.077 10.4582L386.491 9.65592M344.794 9.65592L345.584 9.2568L351.025 6.51268M344.794 9.65592H386.491M368.693 19.7561L362.332 23.3667M428.187 9.65592L433.033 6.51268M428.187 9.65592H386.491M386.491 9.65592L388.589 8.46492L392.029 6.51268M272.899 23.3667H317.615M272.899 23.3667H228.183M310.195 27.1104L317.615 23.3667M310.195 27.1104L302.495 30.9946M310.195 27.1104H355.736M317.615 23.3667H362.332M228.183 23.3667H183.467M228.183 23.3667L236.931 19.7561M362.332 23.3667L355.736 27.1104M236.931 19.7561H193.01M302.495 30.9946L300.524 31.9884L294.5 35.0275M302.495 30.9946H348.891M355.736 27.1104L348.891 30.9946M348.891 30.9946L341.784 35.0275M247.215 35.0275L246.081 35.5429L237.986 39.2183M247.215 35.0275H294.5M247.215 35.0275H199.931M294.5 35.0275L286.194 39.2183M294.5 35.0275H341.784M341.784 35.0275L340.878 35.5429L334.401 39.2183M237.986 39.2183H286.194M237.986 39.2183H189.778M277.556 43.5757L286.194 39.2183M277.556 43.5757L268.568 48.1101M277.556 43.5757H326.723M286.194 39.2183H334.401M189.778 39.2183H141.571M189.778 39.2183L199.931 35.0275M334.401 39.2183L326.723 43.5757M199.931 35.0275H152.646M268.568 48.1101L259.206 52.8325M268.568 48.1101H318.734M326.723 43.5757L318.734 48.1101M318.734 48.1101L310.413 52.8325M208.001 52.8325L197.159 57.755M208.001 52.8325H259.206M208.001 52.8325H156.794M259.206 52.8325L249.449 57.755M259.206 52.8325H310.413M310.413 52.8325L301.739 57.755M197.159 57.755H249.449M197.159 57.755H144.868M239.269 62.8904L249.449 57.755M239.269 62.8904L228.639 68.2525M239.269 62.8904H292.69M249.449 57.755H301.739M144.868 57.755H92.5776M144.868 57.755L156.794 52.8325M301.739 57.755L292.69 62.8904M156.794 52.8325H105.587M228.639 68.2525L217.529 73.8576M228.639 68.2525H283.242M292.69 62.8904L283.242 68.2525M283.242 68.2525L273.366 73.8576M161.692 73.8576L148.776 79.7218M161.692 73.8576H217.529M161.692 73.8576H105.855M217.529 73.8576L205.905 79.7218M217.529 73.8576H273.366M273.366 73.8576L263.033 79.7218M148.776 79.7218H205.905M148.776 79.7218H91.6472M193.729 85.8637L205.905 79.7218M193.729 85.8637L180.964 92.3035M193.729 85.8637H252.211M205.905 79.7218H263.033M91.6472 79.7218H34.5186M91.6472 79.7218L105.855 73.8576M263.033 79.7218L252.211 85.8637M105.855 73.8576H50.0174M180.964 92.3035L167.564 99.0637M180.964 92.3035H240.863M252.211 85.8637L240.863 92.3035M240.863 92.3035L228.953 99.0637M106.175 99.0637L90.5273 106.168M106.175 99.0637H167.564M106.175 99.0637H44.7867M167.564 99.0637L153.48 106.168M167.564 99.0637H228.953M228.953 99.0637L216.434 106.168M90.5273 106.168H153.48M90.5273 106.168H27.5732M138.66 113.644L153.48 106.168M138.66 113.644L123.044 121.522M138.66 113.644H203.26M153.48 106.168H216.434M27.5732 106.168H-35.38M27.5732 106.168L44.7867 99.0637M216.434 106.168L203.26 113.644M44.7867 99.0637H-16.6022M123.044 121.522L106.566 129.836M123.044 121.522H189.38M203.26 113.644L189.38 121.522M189.38 121.522L174.733 129.836M38.3995 129.836L19.0516 138.62M38.3995 129.836H106.566M38.3995 129.836H-29.7662M106.566 129.836L89.1527 138.62M106.566 129.836H174.733M174.733 129.836L159.254 138.62M19.0516 138.62H89.1527M19.0516 138.62H-51.0495M70.7215 147.918L89.1527 138.62M70.7215 147.918L51.1813 157.775M70.7215 147.918H142.87M89.1527 138.62H159.254M-51.0495 138.62H-121.151M-51.0495 138.62L-29.7662 129.836M159.254 138.62L142.87 147.918M-29.7662 129.836H-97.9328M51.1813 157.775L30.4279 168.245M51.1813 157.775H125.502M142.87 147.918L125.502 157.775M125.502 157.775L107.054 168.245M-46.1981 168.245L-70.7329 179.385M-46.1981 168.245H30.4279M-46.1981 168.245H-122.824M30.4279 168.245L8.34665 179.385M30.4279 168.245H107.054M107.054 168.245L87.4262 179.385M-70.7329 179.385H8.34665M-70.7329 179.385H-149.812M-15.1967 191.261L8.34665 179.385M-15.1967 191.261L-40.3499 203.951M-15.1967 191.261H66.4986M8.34665 179.385H87.4262M-149.812 179.385L-122.824 168.245M-149.812 179.385H-155.528M-149.812 179.385L-155.528 181.744M87.4262 179.385L66.4986 191.261M-122.824 168.245H-155.528M-40.3499 203.951L-67.2853 217.539M-40.3499 203.951H44.1401M66.4986 191.261L44.1401 203.951M44.1401 203.951L20.1972 217.539M-154.769 217.539H-67.2853M-154.769 217.539H-155.528M-154.769 217.539L-155.528 217.884M-67.2853 217.539L-96.1999 232.125M-67.2853 217.539H20.1972M20.1972 217.539L-5.50322 232.125M-127.318 247.824L-96.1999 232.125M-127.318 247.824H-33.1646M-127.318 247.824H-155.528M-127.318 247.824L-155.528 262.055M-96.1999 232.125H-5.50322M-96.1999 232.125H-155.528M-5.50322 232.125L-33.1646 247.824M-33.1646 247.824L-63.0177 264.767M-63.0177 264.767L-95.3352 283.108M-63.0177 264.767H-155.528M-95.3352 283.108L-130.435 303.028M-95.3352 283.108H-155.528M-130.435 303.028H-155.528M-130.435 303.028L-155.528 317.269M105.167 19.7561L94.0342 23.3667M105.167 19.7561H149.089M105.167 19.7561H61.246M159.065 16.2716L168.699 12.9068M159.065 16.2716L149.089 19.7561M159.065 16.2716H202.219M168.699 12.9068H211.112M168.699 12.9068L178.008 9.65592M136.312 9.65592H178.008M136.312 9.65592L146.003 6.51268M136.312 9.65592H94.6152M149.089 19.7561L138.75 23.3667M149.089 19.7561H193.01M202.219 16.2716L211.112 12.9068M202.219 16.2716L193.01 19.7561M211.112 12.9068L219.704 9.65592M178.008 9.65592L179.149 9.2568L187.007 6.51268M178.008 9.65592H219.704M193.01 19.7561L183.467 23.3667M261.401 9.65592L269.016 6.51268M261.401 9.65592H219.704M219.704 9.65592L220.758 9.2568L228.011 6.51268M94.0342 23.3667H138.75M94.0342 23.3667H49.3179M128.031 27.1104L138.75 23.3667M128.031 27.1104L116.909 30.9946M128.031 27.1104H173.572M138.75 23.3667H183.467M49.3179 23.3667H4.60166M49.3179 23.3667L61.246 19.7561M183.467 23.3667L173.572 27.1104M61.246 19.7561H17.3251M116.909 30.9946L105.361 35.0275M116.909 30.9946H163.305M173.572 27.1104L172.309 27.5876L163.305 30.9946M163.305 30.9946L152.646 35.0275M58.0766 35.0275L45.1552 39.2183M58.0766 35.0275H105.361M58.0766 35.0275H10.7919M105.361 35.0275L93.3629 39.2183M105.361 35.0275H152.646M152.646 35.0275L141.571 39.2183M45.1552 39.2183H93.3629M45.1552 39.2183H-3.05247M80.8866 43.5757L93.3629 39.2183M80.8866 43.5757L67.9032 48.1101M80.8866 43.5757H130.054M93.3629 39.2183H141.571M-3.05247 39.2183H-51.2601M-3.05247 39.2183L10.7919 35.0275M141.571 39.2183L130.054 43.5757M10.7919 35.0275H-36.4928M67.9032 48.1101L54.3817 52.8325M67.9032 48.1101H118.069M130.054 43.5757L118.069 48.1101M118.069 48.1101L105.587 52.8325M3.17518 52.8325L-12.0036 57.755M3.17518 52.8325H54.3817M3.17518 52.8325H-48.0314M54.3817 52.8325L40.2874 57.755M54.3817 52.8325H105.587M105.587 52.8325L92.5776 57.755M-12.0036 57.755H40.2874M-12.0036 57.755H-64.2937M25.583 62.8904L40.2874 57.755M25.583 62.8904L10.2292 68.2525M25.583 62.8904H79.005M40.2874 57.755H92.5776M-64.2937 57.755H-116.584M-64.2937 57.755L-48.0314 52.8325M92.5776 57.755L79.005 62.8904M-48.0314 52.8325H-99.2371M10.2292 68.2525L-5.8197 73.8576M10.2292 68.2525H64.8314M79.005 62.8904L64.8314 68.2525M64.8314 68.2525L50.0174 73.8576M-61.6569 73.8576L-79.7387 79.7218M-61.6569 73.8576H-5.8197M-61.6569 73.8576H-117.493M-5.8197 73.8576L-22.6101 79.7218M-5.8197 73.8576H50.0174M50.0174 73.8576L34.5186 79.7218M-79.7387 79.7218H-22.6101M-40.1967 85.8637L-22.6101 79.7218M-40.1967 85.8637L-58.6352 92.3035M-40.1967 85.8637H18.2855M-22.6101 79.7218H34.5186M34.5186 79.7218L18.2855 85.8637M-117.493 73.8576H-155.528M-58.6352 92.3035L-77.9912 99.0637M-58.6352 92.3035H1.26438M18.2855 85.8637L1.26438 92.3035M1.26438 92.3035L-16.6022 99.0637M-139.38 99.0637H-77.9912M-139.38 99.0637H-155.528M-139.38 99.0637L-155.528 104.301M-77.9912 99.0637L-98.3341 106.168M-77.9912 99.0637H-16.6022M-16.6022 99.0637L-35.38 106.168M-119.74 113.644L-98.3341 106.168M-119.74 113.644L-142.297 121.522M-119.74 113.644H-55.1401M-119.74 113.644H-155.528M-98.3341 106.168H-35.38M-98.3341 106.168H-155.528M-35.38 106.168L-55.1401 113.644M-155.706 104.358L-155.528 104.301M-142.297 121.522H-75.9619M-142.297 121.522H-155.528M-142.297 121.522L-155.528 126.143M-55.1401 113.644L-75.9619 121.522M-75.9619 121.522L-97.9328 129.836M-97.9328 129.836L-121.151 138.62M-97.9328 129.836H-155.528M-145.725 147.918L-121.151 138.62M-145.725 147.918H-155.528M-145.725 147.918L-155.528 151.627M-121.151 138.62H-155.528M-70.5168 19.7561L-84.8309 23.3667M-70.5168 19.7561H-26.5958M-70.5168 19.7561H-114.439M-13.5495 16.2716L-0.951033 12.9068M-13.5495 16.2716L-26.5958 19.7561M-13.5495 16.2716H29.6043M-0.951033 12.9068H41.4613M-0.951033 12.9068L11.2215 9.65592M-30.4749 9.65592H11.2215M-30.4749 9.65592L-18.0141 6.51268M-30.4749 9.65592H-72.1713M-26.5958 19.7561L-40.1146 23.3667M-26.5958 19.7561H17.3251M29.6043 16.2716L41.4613 12.9068M29.6043 16.2716L17.3251 19.7561M41.4613 12.9068L52.9179 9.65592M11.2215 9.65592H52.9179M11.2215 9.65592L22.9909 6.51268M17.3251 19.7561L4.60166 23.3667M94.6152 9.65592L104.999 6.51268M94.6152 9.65592H52.9179M52.9179 9.65592L63.995 6.51268M-84.8309 23.3667H-40.1146M-84.8309 23.3667H-129.547M-54.1323 27.1104L-40.1146 23.3667M-54.1323 27.1104L-68.6762 30.9946M-54.1323 27.1104H-8.59149M-40.1146 23.3667H4.60166M-129.547 23.3667L-114.439 19.7561M-129.547 23.3667H-155.528M4.60166 23.3667L-8.59149 27.1104M-114.439 19.7561H-155.528M-68.6762 30.9946L-83.7774 35.0275M-68.6762 30.9946H-22.2799M-8.59149 27.1104L-22.2799 30.9946M-22.2799 30.9946L-36.4928 35.0275M-131.062 35.0275L-147.676 39.2183M-131.062 35.0275H-83.7774M-131.062 35.0275H-155.528M-83.7774 35.0275L-99.4678 39.2183M-83.7774 35.0275H-36.4928M-36.4928 35.0275L-51.2601 39.2183M-115.783 43.5757L-99.4678 39.2183M-115.783 43.5757L-132.761 48.1101M-115.783 43.5757H-66.6158M-115.783 43.5757H-155.528M-99.4678 39.2183H-147.676M-99.4678 39.2183H-51.2601M-147.676 39.2183L-155.528 41.1988M-147.676 39.2183H-155.528M-51.2601 39.2183L-66.6158 43.5757M-132.761 48.1101L-150.444 52.8325M-132.761 48.1101H-82.5954M-132.761 48.1101H-155.528M-66.6158 43.5757L-82.5954 48.1101M-82.5954 48.1101L-99.2371 52.8325M-150.444 52.8325H-99.2371M-150.444 52.8325L-155.528 54.1902M-150.444 52.8325H-155.528M-99.2371 52.8325L-116.584 57.755M-134.681 62.8904L-116.584 57.755M-134.681 62.8904L-153.578 68.2525M-134.681 62.8904H-155.528M-116.584 57.755H-155.528M-155.802 57.755H-155.528M-153.578 68.2525H-155.528M-153.578 68.2525L-155.528 68.8059M-156 68.9397L-155.528 68.8059M-143.01 16.2716L-128.189 12.9068M-143.01 16.2716H-155.528M-143.01 16.2716L-155.528 19.1132M-128.189 12.9068L-113.868 9.65592M-128.189 12.9068H-155.528M-72.1713 9.65592L-59.0182 6.51268M-72.1713 9.65592H-113.868M-113.868 9.65592L-100.022 6.51268M-113.868 9.65592H-155.528M1294.12 6.51268H1335.13M1294.12 6.51268H1253.12M1325.08 3.47239L1327.56 4.22321L1335.13 6.51268M1325.08 3.47239H1365.42M1335.13 6.51268H1376.13M1365.42 3.47239L1368.06 4.22321L1369.39 4.60036L1376.13 6.51268M1376.13 6.51268H1417.13M1417.13 6.51268H1458.14M1253.12 6.51268H1212.11M1458.14 6.51268H1499.14M1499.14 6.51268L1486.42 3.47239M1499.14 6.51268H1540.15M1486.42 3.47239H1526.75M1130.1 6.51268H1171.11M1130.1 6.51268H1089.1M1163.74 3.47239L1165.56 4.22321L1166.48 4.60036L1171.11 6.51268M1163.74 3.47239H1204.08M1171.11 6.51268H1212.11M1204.08 3.47239L1212.11 6.51268M1089.1 6.51268H1048.1M966.088 6.51268H1007.09M966.088 6.51268H925.084M1002.4 3.47239L1002.98 3.84664L1003.56 4.22321L1004.14 4.60036L1007.09 6.51268M1002.4 3.47239H1042.74M1007.09 6.51268H1048.1M1042.74 3.47239L1048.1 6.51268M925.084 6.51268H884.079M802.071 6.51268H843.075M802.071 6.51268H761.067M841.066 3.47239L843.075 6.51268M841.066 3.47239H881.401M843.075 6.51268H884.079M881.401 3.47239L881.731 3.84664L882.062 4.22321L882.395 4.60036L884.079 6.51268M761.067 6.51268H720.063M638.054 6.51268H679.059M638.054 6.51268H597.05M679.728 3.47239L679.059 6.51268M679.728 3.47239H720.063M679.059 6.51268H720.063M720.063 3.47239V6.51268M597.05 6.51268H556.045M474.037 6.51268H515.041M474.037 6.51268H433.033M518.389 3.47239L517.563 4.22321L515.888 5.74278L515.041 6.51268M518.389 3.47239H558.724M515.041 6.51268H556.045M558.724 3.47239L558.394 3.84664L558.063 4.22321L557.73 4.60036L556.045 6.51268M433.033 6.51268H392.029M310.021 6.51268H351.025M310.021 6.51268H269.016M357.052 3.47239L355.563 4.22321L354.814 4.60036L351.025 6.51268M357.052 3.47239H397.386M351.025 6.51268H392.029M397.386 3.47239L396.726 3.84664L392.029 6.51268M269.016 6.51268H228.011M146.003 6.51268H187.007M146.003 6.51268H104.999M195.713 3.47239L193.563 4.22321L192.482 4.60036L187.007 6.51268M195.713 3.47239H236.048M187.007 6.51268H228.011M236.048 3.47239L235.057 3.84664L228.011 6.51268M104.999 6.51268H63.995M-18.0141 6.51268H22.9909M-18.0141 6.51268H-59.0182M34.3745 3.47239L22.9909 6.51268M34.3745 3.47239H74.7091M22.9909 6.51268H63.995M74.7091 3.47239L72.0641 4.22321L70.7325 4.60036L63.995 6.51268M-59.0182 6.51268H-100.022M-126.963 3.47239L-141.026 6.51268M-126.963 3.47239H-86.6286M-126.963 3.47239H-155.528M-141.026 6.51268H-100.022M-141.026 6.51268L-155.528 9.64823M-141.026 6.51268H-155.528M-86.6286 3.47239L-89.9357 4.22321L-100.022 6.51268M1526.75 3.47239L1530.06 4.22321L1540.15 6.51268M1540.15 6.51268H1581.15M1581.15 6.51268L1595.65 9.64824M1581.15 6.51268H1595.65M1595.65 151.627V147.918M1595.65 151.627V157.775M1595.65 147.918V138.62M1595.65 157.775V159.613V168.245M1595.65 168.245V179.385M1595.65 79.7218V73.8576M1595.65 79.7218V85.3701M1595.65 3.47239V6.51268M1595.65 6.51268V9.64824M1595.65 9.64824L1595.69 9.65592H1595.65M1595.65 9.64824V9.65592M1595.65 9.65592V12.9068M1595.65 12.9068V16.2716M1595.65 16.2716V19.1132M1595.65 19.1132V19.7561M1595.65 19.7561V23.3667M1595.65 23.3667V27.1104M1595.65 27.1104V29.5746M1595.65 29.5746V30.9946M1595.65 30.9946V35.0275M1595.65 35.0275V39.2183M1595.65 39.2183V41.1989M1595.65 41.1989V43.5757M1595.65 43.5757V48.1101M1595.65 48.1101V52.8325M1595.65 52.8325V54.1902M1595.65 54.1902V57.755M1595.65 57.755V62.8904M1595.65 62.8904V68.2525M1595.65 68.2525V68.8059M1595.65 68.8059V73.8576M1595.65 85.8637V92.3035M1595.65 85.8637V85.3701M1595.65 92.3035V99.0637M1595.65 99.0637V104.301M1595.65 104.301V106.168M1595.65 106.168V113.644M1595.65 113.644V121.522M1595.65 121.522V126.143M1595.65 126.143V129.836M1595.65 129.836V138.62M1595.65 179.385V181.744M1595.65 181.744V191.261M1595.65 191.261V203.951M1595.65 203.951V217.539M1595.65 217.539V217.884M1595.65 217.884V232.125M1595.65 232.125V247.824M1595.65 247.824V262.055M1595.65 262.055V264.767M1595.65 264.767V283.108M1595.65 283.108V303.028M1595.65 303.028V317.269M1595.65 317.269V324.741M1595.65 324.741V348.498M1595.65 348.498V374.605M1595.65 374.605V388.259M1595.65 388.259V403.426M1595.65 403.426V403.529H-155.528V403.426M-155.528 85.8637V92.3035M-155.528 85.8637V85.3701M-155.528 85.3701V79.7218M-155.528 79.7218V73.8576M-155.528 73.8576V68.8059M-155.528 68.8059V68.2525M-155.528 68.2525V62.8904M-155.528 62.8904V57.755M-155.528 57.755V54.1902M-155.528 54.1902V52.8325M-155.528 52.8325V48.1101M-155.528 48.1101V43.5757M-155.528 43.5757V41.1988M-155.528 41.1988V39.2183M-155.528 39.2183V35.0275M-155.528 35.0275V30.9946M-155.528 30.9946V29.5746M-155.528 29.5746V27.1104M-155.528 27.1104V23.3667M-155.528 23.3667V19.7561M-155.528 19.7561V19.1132M-155.528 19.1132V16.2716M-155.528 16.2716V12.9068M-155.528 12.9068V9.65592M-155.528 9.65592H-155.564L-155.528 9.64823M-155.528 9.65592V9.64823M-155.528 9.64823V6.51268M-155.528 6.51268V3.47239M-155.528 403.426V388.259M-155.528 388.259V374.605M-155.528 374.605V348.499M-155.528 348.499V324.741M-155.528 324.741V317.269M-155.528 317.269V303.028M-155.528 303.028V283.108M-155.528 283.108V264.767M-155.528 264.767V262.055M-155.528 262.055V247.824M-155.528 247.824V232.125M-155.528 232.125V217.884M-155.528 217.884V217.539M-155.528 217.539V203.951M-155.528 203.951V191.261M-155.528 191.261V181.744M-155.528 181.744V179.385M-155.528 179.385V168.245M-155.528 168.245V157.775M-155.528 157.775V151.627M-155.528 151.627V147.918M-155.528 147.918V138.62M-155.528 138.62V129.836M-155.528 129.836V126.143M-155.528 126.143V121.522M-155.528 121.522V113.644M-155.528 113.644V106.168M-155.528 106.168V104.301M-155.528 104.301V99.0637M-155.528 99.0637V92.3035" stroke="url(#paint0_radial_25428_1825)" stroke-opacity="0.6" stroke-width="1.05907" stroke-miterlimit="10" stroke-linecap="round" stroke-linejoin="round"/>
<defs>
<radialGradient id="paint0_radial_25428_1825" cx="0" cy="0" r="1" gradientUnits="userSpaceOnUse" gradientTransform="translate(720.063 388.676) rotate(-90) scale(630.844 2742.72)">
<stop stop-color="#CED2DF"/>
<stop offset="0.489074" stop-color="#CED2DF" stop-opacity="0"/>
</radialGradient>
</defs>
</svg>
