<svg width="317" height="999" viewBox="0 0 317 999" fill="none" xmlns="http://www.w3.org/2000/svg">
<path d="M-835.121 998.88L-867.938 873.966C-869.127 874.281 -871.487 875.286 -871.487 875.286C-871.487 875.286 -856.617 859.263 -848.574 846.871C-830.541 819.09 -812.493 783.657 -791.856 748.059C-739.775 658.222 -670.169 572.668 -568.3 555.445C-442.501 534.194 -336.671 575.973 -228.146 615.22C-142.782 646.093 -55.0626 675.075 54.089 640.767C104.362 624.944 120.583 580.312 129.264 529.074C141.77 455.212 136.137 367.15 138.13 287.62C139.715 224.507 146.16 166.06 163.986 119.991C187.27 59.751 227.951 17.0472 295.256 0.000256154L328.056 124.911C297.122 132.747 285.853 158.954 278.553 190.092C266.312 242.436 267.839 308.104 267.819 374.37C267.826 451.905 266.055 530.117 248.175 594.351C225.628 675.282 179.65 736.715 94.0114 763.643C-47.5182 808.139 -161.702 776.323 -272.396 736.279C-359.963 704.603 -444.335 665.385 -545.834 682.539C-580.12 688.322 -605.73 710.781 -628.001 737.288C-657.715 772.664 -681.023 816.049 -702.597 854.876C-723.745 892.991 -743.736 927.389 -764.067 951.112C-786.233 976.987 -810.566 992.659 -835.121 998.88Z" fill="#C7DEFB"/>
</svg>
