<svg width="1137" height="999" viewBox="0 0 1137 999" fill="none" xmlns="http://www.w3.org/2000/svg">
<path d="M19.7658 998.88L-13.0515 873.966C-14.2399 874.281 -16.6005 875.286 -16.6005 875.286C-16.6005 875.286 -1.73011 859.263 6.31317 846.871C24.3458 819.09 42.3938 783.657 63.0312 748.059C115.112 658.222 184.718 572.668 286.587 555.445C412.386 534.194 518.216 575.973 626.741 615.22C712.105 646.093 799.824 675.075 908.976 640.767C959.249 624.944 975.47 580.312 984.151 529.074C996.657 455.212 991.024 367.15 993.017 287.62C994.601 224.507 1001.05 166.06 1018.87 119.991C1042.16 59.751 1082.84 17.0472 1150.14 0.000256154L1182.94 124.911C1152.01 132.747 1140.74 158.954 1133.44 190.092C1121.2 242.436 1122.73 308.104 1122.71 374.37C1122.71 451.905 1120.94 530.117 1103.06 594.351C1080.52 675.282 1034.54 736.715 948.898 763.643C807.369 808.139 693.185 776.323 582.491 736.279C494.924 704.603 410.551 665.385 309.053 682.539C274.766 688.322 249.157 710.781 226.886 737.288C197.172 772.664 173.864 816.049 152.29 854.876C131.142 892.991 111.15 927.389 90.8193 951.112C68.6538 976.987 44.3211 992.659 19.7658 998.88Z" fill="#C7DEFB"/>
</svg>
