<svg width="97" height="20" viewBox="0 0 97 20" fill="none" xmlns="http://www.w3.org/2000/svg">
<path fill-rule="evenodd" clip-rule="evenodd" d="M96.3678 15.6748C92.3345 21.4333 85.9469 19.7624 84.0285 18.4541C83.2121 18.9206 81.7804 19.9431 79.8714 19.825C75.8059 19.5737 74.35 14.6812 74.35 14.6812C74.3792 14.7008 73.139 15.0416 72.4687 15.0355C72.46 16.4703 70.9873 19.8977 67.0125 19.8538C62.5523 19.8048 61.6455 14.2091 61.6455 14.2091C61.6455 14.2091 61.2017 14.7281 59.514 15.245C59.599 14.1428 59.5369 19.686 54.1911 19.7675C49.9649 19.832 48.8241 14.1228 48.8241 14.1228C48.8241 14.1228 48.0909 14.7641 46.6701 14.9866C46.7604 13.8663 46.6136 19.7863 41.2671 19.7675C37.6541 19.7549 36.4194 16.2506 36.5154 15.7643C36.638 15.1444 35.2944 19.8547 31.7848 19.7813C30.3365 19.7455 29.2568 18.8624 28.5793 17.6852C27.6723 18.5591 26.3555 19.7813 24.8782 19.7813C22.2266 19.7813 21.0575 17.9136 21.2555 12.5792C21.2724 11.9466 21.2182 11.6977 20.4713 11.603C20.023 11.5401 19.5639 11.4208 19.0782 11.3579C18.9225 11.7954 17.602 19.639 13.0612 19.7878C11.5379 19.8378 10.7049 18.7265 10.0209 17.9018C8.97227 19.0699 7.58806 19.825 5.61613 19.825C2.27584 19.825 0 17.5511 0 14.746C0 11.9409 2.27584 9.66716 5.61613 9.66716C6.20673 9.66716 6.37252 9.73845 6.91207 9.87102C5.80247 1.36358 8.42289 0.033994 10.7152 0.033994C12.9159 0.033994 16.6757 4.33536 11.3854 15.2459C12.5599 18.5002 15.092 18.3162 16.3088 11.6169C16.5564 10.2552 15.8943 8.41759 16.9242 8.16111C18.8069 7.6924 19.0067 9.09869 19.8894 9.33301C20.8229 9.58065 21.3677 9.55647 22.2638 9.71405C23.795 9.96586 24.3925 10.6585 24.2059 12.2013C23.9819 14.1534 23.59 16.9945 24.7849 17.3408C25.6466 17.5924 27.2198 16.0875 27.4959 15.2642C27.7719 14.4408 27.8295 14.159 27.854 13.5551C27.8914 12.2644 27.9382 11.3183 28.1996 10.3421C28.3115 9.9644 28.439 9.71427 28.9464 9.69717C29.364 9.68821 30.1276 9.58232 30.4638 9.80265C30.9118 10.0861 30.8558 10.3738 30.8044 11.1309C30.2833 21.9252 34.2939 16.5366 35.4897 12.2219C35.0639 7.34305 35.3562 0.123335 38.9868 0.00224704C40.875 -0.0607254 41.7097 1.21308 41.8015 2.16386C42.0613 4.84921 40.6065 9.29745 38.6933 12.2889C37.5999 18.3927 43.4741 19.5996 44.4135 14.7275C42.8766 14.1122 41.2156 11.6214 42.5672 10.4076C43.3256 9.72642 46.4826 10.705 46.5343 12.8394C48.0829 12.4907 48.2897 11.7544 48.3111 11.8764C47.8854 6.9975 48.2803 0.123398 51.9111 0.00230938C53.799 -0.0606631 54.6337 1.21315 54.7255 2.16392C54.9852 4.84927 53.5304 9.29752 51.6175 12.289C50.5239 18.3927 56.3983 19.5997 57.3374 14.7276C56.1995 14.5427 53.7975 11.8935 55.1834 10.4077C55.9241 9.61371 59.0695 11.2649 59.4217 12.9101C60.9093 12.5556 61.1114 11.8427 61.1327 11.9627C60.7069 7.08397 61.1017 0.209862 64.7325 0.0887743C66.6205 0.0258019 67.4551 1.29961 67.5469 2.25039C67.8066 4.93573 66.3519 9.38407 64.4387 12.3755C63.3454 18.4794 69.2196 19.686 70.159 14.8139C68.5953 14.5947 66.373 11.7975 68.1616 10.3665C68.8762 9.79471 71.6067 11.2789 72.2459 12.9721C73.134 12.9434 73.6868 12.6854 73.8053 12.6594C72.3875 6.93193 73.443 0.0597585 77.3488 0.00239335C79.4598 -0.0285822 81.5236 0.963468 80.6178 6.41243C79.7531 11.6114 76.6448 13.7932 76.6521 13.8265C76.8329 14.4494 78.4279 19.6618 82.4442 16.9116C82.2364 16.5151 82.0282 16.1101 81.9119 15.6195C81.2462 12.7614 82.5537 9.53312 86.1077 9.01137C88.144 8.71245 90.0621 9.54729 90.3654 11.4294C90.8644 14.509 87.5621 16.7394 86.3063 17.2232C85.7439 16.9541 91.4047 20.0114 94.7643 13.8845C94.9591 13.5347 95.1939 13.5643 95.4982 13.7446C95.7131 13.872 96.9371 14.8484 96.3678 15.6748ZM8.04589 13.9893C7.87495 13.559 7.52415 12.6107 7.4001 12.1998C6.71691 11.6995 6.22927 11.6182 5.35233 11.6182C3.40351 11.6182 2.25646 13.1356 2.25646 14.7717C2.25646 16.4077 3.50608 17.9253 5.45492 17.9253C7.14381 17.9253 8.4292 16.9583 8.82137 15.5894C8.54688 15.0557 8.27459 14.5653 8.04589 13.9893ZM10.6674 2.28597C9.29809 2.28597 8.83357 5.03679 8.92372 7.38351C9.00346 9.45829 9.69192 11.2849 10.0491 12.1033C10.1397 12.2059 10.1229 12.1392 10.2038 12.2479C12.5815 7.86098 11.5953 2.28597 10.6674 2.28597ZM39.1824 2.37238C37.4125 2.20145 37.424 8.40999 37.6437 9.80265C38.5629 8.56436 40.1596 2.70579 39.1824 2.37238ZM52.1063 2.37238C50.3365 2.20145 50.3479 8.40999 50.5677 9.80265C51.4868 8.56436 53.0837 2.70579 52.1063 2.37238ZM64.9279 2.45876C63.1579 2.28783 63.1693 8.49641 63.3892 9.88915C64.3082 8.65076 65.9051 2.79215 64.9279 2.45876ZM77.5441 2.00894C74.7866 2.47524 75.4287 10.2175 75.8475 11.5753C79.0956 7.81855 79.1625 1.86783 77.5441 2.00894ZM87.8784 11.6841C87.7382 11.1905 87.0372 10.9266 86.5533 10.9916C85.1688 11.1509 83.826 12.603 84.3458 14.8137C84.4615 15.3061 84.751 15.7593 84.7463 15.7443C87.8449 13.9937 88.1083 12.6142 87.8784 11.6841ZM29.4892 7.9883C29.0935 7.98837 28.7067 7.8896 28.3776 7.70451C28.0486 7.51941 27.792 7.25631 27.6405 6.94845C27.489 6.6406 27.4494 6.30182 27.5266 5.97499C27.6037 5.64814 27.7943 5.34792 28.0741 5.11227C28.3539 4.87661 28.7104 4.71613 29.0985 4.65111C29.4866 4.58609 29.8889 4.61944 30.2545 4.74698C30.6201 4.8745 30.9325 5.09046 31.1524 5.36754C31.3722 5.64462 31.4896 5.97039 31.4896 6.30362C31.4896 6.52484 31.4379 6.74391 31.3373 6.94829C31.2368 7.15268 31.0895 7.33839 30.9037 7.49483C30.7179 7.65127 30.4975 7.77536 30.2548 7.86003C30.0121 7.94471 29.752 7.98829 29.4892 7.9883Z" fill="#0D0C22"/>
</svg>
